<?xml version="1.0" standalone="no"?>
<!DOCTYPE svg PUBLIC "-//W3C//DTD SVG 20010904//EN"
 "http://www.w3.org/TR/2001/REC-SVG-20010904/DTD/svg10.dtd">
<svg version="1.0" xmlns="http://www.w3.org/2000/svg"
 width="714.000000pt" height="714.000000pt" viewBox="0 0 714.000000 714.000000"
 preserveAspectRatio="xMidYMid meet">
<metadata>
Created by potrace 1.14, written by Peter Selinger 2001-2017
</metadata>
<g transform="translate(0.000000,714.000000) scale(0.100000,-0.100000)"
fill="#000000" stroke="none">
<path d="M1200 6305 c-167 -43 -269 -180 -258 -346 9 -125 78 -224 196 -281
59 -28 71 -30 146 -26 97 6 156 31 218 92 69 68 100 142 100 246 1 52 -8 88
-39 148 -65 128 -227 202 -363 167z"/>
<path d="M1114 5410 c-36 -14 -87 -83 -131 -177 -24 -51 -43 -97 -43 -103 0
-6 -4 -18 -10 -28 -5 -9 -19 -51 -31 -92 -28 -95 -27 -89 -34 -125 -3 -16 -10
-44 -16 -62 -5 -17 -12 -44 -15 -60 -3 -15 -7 -35 -9 -43 -2 -8 -7 -28 -10
-45 -2 -16 -7 -41 -10 -55 -3 -14 -9 -50 -15 -80 -6 -30 -12 -66 -15 -80 -3
-13 -7 -42 -10 -65 -3 -22 -10 -65 -15 -95 -5 -30 -12 -77 -15 -105 -3 -27 -8
-61 -10 -75 -3 -14 -7 -56 -10 -95 -3 -38 -7 -80 -10 -93 -2 -13 -7 -62 -10
-110 -4 -48 -8 -103 -10 -122 -11 -102 -19 -354 -19 -580 1 -330 13 -563 40
-765 3 -22 7 -58 9 -80 2 -22 6 -50 9 -62 2 -11 8 -43 12 -70 8 -55 12 -78 19
-113 3 -14 7 -34 9 -45 13 -63 31 -133 61 -240 136 -473 370 -772 745 -953 97
-47 253 -103 325 -117 30 -5 57 -11 98 -20 12 -3 47 -8 77 -11 30 -3 69 -7 85
-9 35 -5 263 -5 315 -1 33 3 109 14 155 22 137 23 245 81 245 131 0 30 -29 47
-131 79 -454 140 -816 366 -1068 669 -36 44 -69 82 -73 83 -5 2 -8 7 -8 11 0
5 -22 41 -49 82 -26 41 -63 103 -82 139 -19 36 -37 66 -41 68 -5 2 -8 11 -8
21 0 9 -4 21 -9 26 -5 6 -23 48 -40 95 -18 47 -36 94 -41 105 -31 68 -86 303
-114 485 -3 19 -8 46 -10 60 -2 14 -7 57 -10 95 -3 39 -9 97 -12 130 -13 145
-7 544 12 750 3 33 7 85 9 115 2 30 6 75 9 100 3 25 8 65 10 90 6 55 15 135
21 175 2 17 7 55 10 85 8 74 13 115 15 115 1 0 3 20 6 44 2 25 7 56 10 70 2
14 7 50 9 78 3 29 7 65 9 80 5 33 15 117 22 188 3 28 7 113 8 191 4 155 -5
212 -51 302 -44 88 -96 118 -159 92z"/>
<path d="M4328 4975 c-2 -1 -34 -6 -73 -10 -116 -12 -130 -13 -130 -15 0 -1
-9 -3 -19 -5 -158 -30 -349 -88 -463 -140 -40 -19 -73 -31 -73 -27 0 4 -4 1
-9 -6 -4 -7 -14 -14 -22 -15 -8 -2 -25 -10 -39 -20 -13 -9 -28 -17 -31 -17
-20 0 -241 -148 -331 -222 -127 -104 -358 -347 -358 -377 0 -6 -4 -11 -8 -11
-18 0 -180 -267 -226 -370 -16 -36 -35 -78 -42 -95 -8 -16 -27 -70 -44 -120
-17 -49 -34 -97 -37 -105 -3 -8 -6 -18 -5 -22 1 -3 -5 -28 -13 -55 -8 -26 -17
-64 -20 -83 -4 -19 -11 -60 -16 -90 -28 -153 -39 -405 -24 -545 11 -107 16
-142 21 -170 46 -267 121 -483 243 -703 58 -106 58 -106 106 -175 22 -32 45
-66 50 -75 6 -9 13 -19 16 -22 3 -3 28 -32 54 -65 61 -75 211 -226 290 -291
33 -27 66 -54 73 -61 7 -7 30 -22 52 -34 22 -13 40 -26 40 -31 0 -4 7 -8 15
-8 9 0 18 -7 21 -15 4 -8 11 -15 18 -15 6 0 40 -19 76 -41 36 -23 70 -42 76
-43 7 -1 18 -6 25 -12 37 -28 337 -146 402 -158 12 -2 49 -11 82 -19 33 -9 80
-19 105 -22 25 -3 52 -8 60 -10 65 -18 407 -26 525 -13 142 16 276 43 400 80
39 12 72 22 75 23 7 2 42 16 65 25 11 4 36 14 55 21 98 35 372 192 475 271
176 135 369 338 482 508 50 74 143 228 143 236 0 2 14 32 31 66 41 85 120 295
120 323 0 2 6 23 14 45 8 22 12 40 10 40 -3 0 0 11 5 24 5 13 12 43 15 67 4
24 8 46 10 49 2 3 6 30 9 60 4 30 9 72 12 92 3 20 6 72 8 115 l4 78 -15 -65
c-20 -93 -60 -241 -74 -275 -7 -17 -13 -35 -14 -40 -7 -33 -107 -239 -117
-243 -5 -2 -8 -8 -8 -14 0 -9 -62 -106 -127 -198 -85 -119 -397 -410 -441
-410 -6 0 -12 -3 -14 -8 -9 -20 -176 -112 -298 -164 -110 -46 -134 -54 -275
-92 -190 -50 -387 -67 -604 -52 -58 4 -107 9 -110 11 -4 1 -28 6 -56 9 -27 4
-68 12 -90 18 -22 5 -49 12 -60 14 -130 25 -431 150 -514 215 -13 11 -28 19
-33 19 -5 0 -14 5 -21 10 -7 6 -50 39 -97 74 -146 109 -233 196 -390 393 -8
10 -35 52 -107 168 -7 11 -33 61 -57 110 -80 165 -145 385 -164 555 -14 131
-8 392 13 530 8 57 48 209 70 267 14 35 24 64 24 66 -2 20 107 238 162 323 99
152 265 340 383 431 26 21 53 43 60 48 6 6 47 34 91 63 44 29 85 55 90 60 25
18 177 92 190 92 8 0 15 5 15 10 0 6 6 10 13 10 6 0 47 14 89 30 42 16 85 31
95 33 10 1 23 5 28 8 6 4 28 10 50 14 22 5 42 9 45 10 105 28 275 47 429 47
90 1 261 -11 273 -18 4 -3 26 -7 50 -10 24 -3 61 -10 83 -16 22 -5 47 -11 55
-13 8 -2 35 -9 60 -16 25 -7 50 -13 55 -15 14 -3 79 -28 143 -53 28 -11 52
-19 52 -17 0 8 -113 66 -127 66 -7 0 -13 3 -13 8 0 4 -12 12 -27 19 -148 63
-250 101 -292 109 -13 3 -34 10 -45 16 -12 6 -22 11 -23 10 -2 -1 -4 -2 -5 -1
-2 0 -11 2 -20 4 -9 2 -40 8 -70 15 -69 15 -84 18 -138 25 -25 3 -58 8 -75 11
-33 5 -392 14 -397 9z"/>
<path d="M4174 2451 c-27 -9 -63 -25 -80 -35 -39 -25 -114 -106 -114 -123 0
-7 -4 -13 -10 -13 -5 0 -9 -3 -8 -7 1 -5 -4 -27 -11 -51 -11 -40 -15 -109 -8
-157 12 -82 100 -191 186 -233 47 -23 69 -27 141 -27 72 0 93 4 140 27 151 74
222 231 179 393 -47 175 -239 280 -415 226z"/>
<path d="M5250 2456 c-72 -21 -92 -31 -143 -76 -47 -41 -86 -104 -102 -165
-30 -108 11 -249 94 -323 40 -35 81 -64 81 -57 0 4 12 -1 28 -11 41 -28 189
-26 255 4 80 36 167 138 186 217 2 11 5 54 5 95 1 61 -4 85 -25 130 -28 60
-88 126 -134 150 -17 8 -33 19 -37 25 -4 5 -8 7 -8 3 0 -4 -12 -3 -27 3 -43
16 -124 18 -173 5z"/>
<path d="M4743 1672 c-36 -17 -71 -76 -67 -114 10 -97 120 -148 199 -91 23 17
41 49 37 66 -1 4 1 7 6 7 4 0 7 11 7 25 0 14 -3 25 -7 25 -5 0 -8 9 -8 19 0
17 -49 69 -68 72 -39 7 -73 3 -99 -9z"/>
</g>
</svg>
