<svg width="184" height="51" viewBox="0 0 184 51" fill="none" xmlns="http://www.w3.org/2000/svg">
<path d="M3.72602 11.6152V27H1.86301V11.6152H3.72602ZM8.9939 20.0588V27H7.22104V15.4614H8.9338V17.2643H9.08404C9.35448 16.6783 9.76514 16.2076 10.316 15.852C10.8669 15.4914 11.5781 15.3111 12.4495 15.3111C13.2307 15.3111 13.9143 15.4714 14.5003 15.7919C15.0862 16.1074 15.542 16.5882 15.8675 17.2342C16.193 17.8753 16.3558 18.6866 16.3558 19.6682V27H14.5829V19.7884C14.5829 18.8819 14.3475 18.1757 13.8768 17.6699C13.406 17.1591 12.76 16.9037 11.9387 16.9037C11.3727 16.9037 10.8669 17.0264 10.4212 17.2718C9.98049 17.5172 9.63243 17.8753 9.37702 18.346C9.12161 18.8168 8.9939 19.3877 8.9939 20.0588ZM21.3683 20.0588V27H19.5954V15.4614H21.3082V17.2643H21.4584C21.7288 16.6783 22.1395 16.2076 22.6904 15.852C23.2413 15.4914 23.9524 15.3111 24.8238 15.3111C25.6051 15.3111 26.2887 15.4714 26.8747 15.7919C27.4606 16.1074 27.9163 16.5882 28.2419 17.2342C28.5674 17.8753 28.7301 18.6866 28.7301 19.6682V27H26.9573V19.7884C26.9573 18.8819 26.7219 18.1757 26.2511 17.6699C25.7804 17.1591 25.1343 16.9037 24.313 16.9037C23.7471 16.9037 23.2413 17.0264 22.7956 17.2718C22.3549 17.5172 22.0068 17.8753 21.7514 18.346C21.496 18.8168 21.3683 19.3877 21.3683 20.0588ZM36.6573 27.2404C35.6156 27.2404 34.7017 26.9925 33.9154 26.4967C33.1341 26.0009 32.5231 25.3073 32.0824 24.4158C31.6467 23.5244 31.4289 22.4827 31.4289 21.2908C31.4289 20.0888 31.6467 19.0396 32.0824 18.1432C32.5231 17.2467 33.1341 16.5506 33.9154 16.0548C34.7017 15.559 35.6156 15.3111 36.6573 15.3111C37.699 15.3111 38.6105 15.559 39.3917 16.0548C40.178 16.5506 40.789 17.2467 41.2247 18.1432C41.6654 19.0396 41.8858 20.0888 41.8858 21.2908C41.8858 22.4827 41.6654 23.5244 41.2247 24.4158C40.789 25.3073 40.178 26.0009 39.3917 26.4967C38.6105 26.9925 37.699 27.2404 36.6573 27.2404ZM36.6573 25.6478C37.4486 25.6478 38.0997 25.445 38.6105 25.0393C39.1213 24.6337 39.4994 24.1003 39.7448 23.4392C39.9902 22.7782 40.1129 22.062 40.1129 21.2908C40.1129 20.5195 39.9902 19.8009 39.7448 19.1348C39.4994 18.4687 39.1213 17.9304 38.6105 17.5197C38.0997 17.109 37.4486 16.9037 36.6573 16.9037C35.866 16.9037 35.215 17.109 34.7042 17.5197C34.1933 17.9304 33.8152 18.4687 33.5698 19.1348C33.3244 19.8009 33.2017 20.5195 33.2017 21.2908C33.2017 22.062 33.3244 22.7782 33.5698 23.4392C33.8152 24.1003 34.1933 24.6337 34.7042 25.0393C35.215 25.445 35.866 25.6478 36.6573 25.6478ZM53.6141 15.4614L49.3472 27H47.5443L43.2774 15.4614H45.2005L48.3856 24.6562H48.5058L51.691 15.4614H53.6141ZM58.9984 27.2704C58.2672 27.2704 57.6036 27.1327 57.0077 26.8573C56.4117 26.5768 55.9385 26.1737 55.5879 25.6478C55.2373 25.117 55.062 24.4759 55.062 23.7247C55.062 23.0636 55.1923 22.5278 55.4527 22.1171C55.7131 21.7014 56.0612 21.3759 56.4969 21.1405C56.9326 20.9052 57.4133 20.7299 57.9392 20.6147C58.47 20.4945 59.0034 20.3993 59.5393 20.3292C60.2404 20.2391 60.8088 20.1715 61.2445 20.1264C61.6852 20.0763 62.0058 19.9937 62.2061 19.8785C62.4114 19.7633 62.5141 19.563 62.5141 19.2775V19.2174C62.5141 18.4762 62.3113 17.9003 61.9056 17.4896C61.5049 17.079 60.8965 16.8736 60.0801 16.8736C59.2338 16.8736 58.5702 17.0589 58.0894 17.4295C57.6087 17.8001 57.2706 18.1958 57.0753 18.6165L55.3926 18.0155C55.6931 17.3144 56.0937 16.7685 56.5945 16.3778C57.1003 15.9822 57.6512 15.7068 58.2472 15.5515C58.8482 15.3913 59.4391 15.3111 60.0201 15.3111C60.3906 15.3111 60.8163 15.3562 61.2971 15.4463C61.7829 15.5315 62.2512 15.7093 62.7019 15.9797C63.1576 16.2501 63.5357 16.6583 63.8362 17.2042C64.1367 17.7501 64.2869 18.4812 64.2869 19.3977V27H62.5141V25.4375H62.4239C62.3037 25.6879 62.1034 25.9558 61.823 26.2413C61.5425 26.5267 61.1694 26.7696 60.7037 26.97C60.2379 27.1703 59.6695 27.2704 58.9984 27.2704ZM59.2688 25.6779C59.97 25.6779 60.5609 25.5401 61.0417 25.2647C61.5275 24.9893 61.8931 24.6337 62.1385 24.198C62.3889 23.7623 62.5141 23.304 62.5141 22.8233V21.2006C62.439 21.2908 62.2737 21.3734 62.0183 21.4485C61.7679 21.5186 61.4774 21.5812 61.1469 21.6363C60.8213 21.6864 60.5033 21.7315 60.1928 21.7716C59.8873 21.8066 59.6394 21.8367 59.4491 21.8617C58.9884 21.9218 58.5577 22.0195 58.157 22.1547C57.7614 22.2849 57.4409 22.4827 57.1955 22.7481C56.9551 23.0086 56.8349 23.3641 56.8349 23.8149C56.8349 24.4309 57.0628 24.8966 57.5185 25.2121C57.9793 25.5226 58.5627 25.6779 59.2688 25.6779ZM72.5409 15.4614V16.9638H66.5612V15.4614H72.5409ZM68.3041 12.6969H70.0769V23.6947C70.0769 24.1955 70.1495 24.5711 70.2948 24.8215C70.445 25.0669 70.6353 25.2321 70.8657 25.3173C71.1011 25.3974 71.349 25.4375 71.6094 25.4375C71.8047 25.4375 71.965 25.4275 72.0902 25.4074C72.2154 25.3824 72.3155 25.3624 72.3907 25.3473L72.7512 26.9399C72.631 26.985 72.4633 27.03 72.2479 27.0751C72.0326 27.1252 71.7596 27.1502 71.4291 27.1502C70.9283 27.1502 70.4375 27.0426 69.9567 26.8272C69.481 26.6119 69.0853 26.2838 68.7698 25.8431C68.4593 25.4024 68.3041 24.8465 68.3041 24.1754V12.6969ZM75.2077 27V15.4614H76.9806V27H75.2077ZM76.1092 13.5383C75.7636 13.5383 75.4656 13.4206 75.2152 13.1852C74.9698 12.9498 74.8471 12.6669 74.8471 12.3363C74.8471 12.0058 74.9698 11.7228 75.2152 11.4874C75.4656 11.2521 75.7636 11.1344 76.1092 11.1344C76.4547 11.1344 76.7502 11.2521 76.9956 11.4874C77.246 11.7228 77.3712 12.0058 77.3712 12.3363C77.3712 12.6669 77.246 12.9498 76.9956 13.1852C76.7502 13.4206 76.4547 13.5383 76.1092 13.5383ZM89.6629 15.4614L85.396 27H83.5931L79.3262 15.4614H81.2493L84.4345 24.6562H84.5547L87.7398 15.4614H89.6629ZM96.4276 27.2404C95.3158 27.2404 94.3568 26.995 93.5504 26.5042C92.7492 26.0084 92.1307 25.3173 91.695 24.4309C91.2643 23.5394 91.0489 22.5027 91.0489 21.3208C91.0489 20.1389 91.2643 19.0972 91.695 18.1958C92.1307 17.2893 92.7366 16.5832 93.5129 16.0774C94.2942 15.5665 95.2056 15.3111 96.2473 15.3111C96.8483 15.3111 97.4417 15.4113 98.0277 15.6116C98.6136 15.8119 99.147 16.1375 99.6278 16.5882C100.109 17.0339 100.492 17.6249 100.777 18.361C101.063 19.0972 101.205 20.0037 101.205 21.0804V21.8317H92.3109V20.2992H99.4024C99.4024 19.6481 99.2722 19.0672 99.0118 18.5564C98.7564 18.0455 98.3908 17.6424 97.915 17.3469C97.4442 17.0514 96.8883 16.9037 96.2473 16.9037C95.5412 16.9037 94.9302 17.079 94.4143 17.4295C93.9035 17.7751 93.5104 18.2258 93.2349 18.7817C92.9595 19.3376 92.8218 19.9336 92.8218 20.5696V21.5913C92.8218 22.4627 92.972 23.2014 93.2725 23.8073C93.578 24.4083 94.0012 24.8666 94.5421 25.1821C95.0829 25.4926 95.7114 25.6478 96.4276 25.6478C96.8933 25.6478 97.314 25.5827 97.6896 25.4525C98.0702 25.3173 98.3983 25.117 98.6737 24.8515C98.9492 24.5811 99.162 24.2456 99.3123 23.8449L101.025 24.3257C100.845 24.9066 100.542 25.4174 100.116 25.8582C99.6904 26.2939 99.1645 26.6344 98.5385 26.8798C97.9125 27.1202 97.2089 27.2404 96.4276 27.2404ZM122.472 16.4229H120.609C120.499 15.8871 120.306 15.4163 120.031 15.0106C119.76 14.605 119.43 14.2644 119.039 13.989C118.653 13.7085 118.225 13.4982 117.755 13.358C117.284 13.2177 116.793 13.1476 116.282 13.1476C115.351 13.1476 114.507 13.383 113.751 13.8538C112.999 14.3245 112.401 15.0182 111.955 15.9346C111.514 16.8511 111.294 17.9754 111.294 19.3076C111.294 20.6397 111.514 21.764 111.955 22.6805C112.401 23.597 112.999 24.2906 113.751 24.7614C114.507 25.2321 115.351 25.4675 116.282 25.4675C116.793 25.4675 117.284 25.3974 117.755 25.2572C118.225 25.117 118.653 24.9091 119.039 24.6337C119.43 24.3532 119.76 24.0102 120.031 23.6045C120.306 23.1939 120.499 22.7231 120.609 22.1922H122.472C122.332 22.9785 122.077 23.6821 121.706 24.3031C121.335 24.9241 120.875 25.4525 120.324 25.8882C119.773 26.3189 119.154 26.6469 118.468 26.8723C117.787 27.0977 117.058 27.2103 116.282 27.2103C114.97 27.2103 113.803 26.8898 112.782 26.2488C111.76 25.6078 110.956 24.6963 110.37 23.5144C109.784 22.3325 109.491 20.9302 109.491 19.3076C109.491 17.685 109.784 16.2827 110.37 15.1008C110.956 13.9189 111.76 13.0074 112.782 12.3664C113.803 11.7253 114.97 11.4048 116.282 11.4048C117.058 11.4048 117.787 11.5175 118.468 11.7429C119.154 11.9682 119.773 12.2988 120.324 12.7345C120.875 13.1652 121.335 13.691 121.706 14.312C122.077 14.928 122.332 15.6316 122.472 16.4229ZM125.242 27V15.4614H127.015V27H125.242ZM126.144 13.5383C125.798 13.5383 125.5 13.4206 125.25 13.1852C125.004 12.9498 124.882 12.6669 124.882 12.3363C124.882 12.0058 125.004 11.7228 125.25 11.4874C125.5 11.2521 125.798 11.1344 126.144 11.1344C126.489 11.1344 126.785 11.2521 127.03 11.4874C127.281 11.7228 127.406 12.0058 127.406 12.3363C127.406 12.6669 127.281 12.9498 127.03 13.1852C126.785 13.4206 126.489 13.5383 126.144 13.5383ZM130.262 27V15.4614H131.975V17.2042H132.095C132.306 16.6333 132.686 16.17 133.237 15.8144C133.788 15.4589 134.409 15.2811 135.1 15.2811C135.23 15.2811 135.393 15.2836 135.588 15.2886C135.784 15.2936 135.931 15.3011 136.032 15.3111V17.114C135.971 17.099 135.834 17.0765 135.618 17.0464C135.408 17.0114 135.185 16.9938 134.95 16.9938C134.389 16.9938 133.888 17.1115 133.447 17.3469C133.012 17.5773 132.666 17.8978 132.411 18.3085C132.16 18.7141 132.035 19.1774 132.035 19.6982V27H130.262ZM142.469 27.2404C141.388 27.2404 140.456 26.985 139.675 26.4742C138.894 25.9633 138.293 25.2597 137.872 24.3632C137.451 23.4668 137.241 22.4426 137.241 21.2908C137.241 20.1189 137.456 19.0847 137.887 18.1883C138.323 17.2868 138.929 16.5832 139.705 16.0774C140.486 15.5665 141.398 15.3111 142.439 15.3111C143.251 15.3111 143.982 15.4614 144.633 15.7619C145.284 16.0623 145.817 16.483 146.233 17.0239C146.649 17.5648 146.907 18.1958 147.007 18.9169H145.234C145.099 18.3911 144.798 17.9253 144.332 17.5197C143.872 17.109 143.251 16.9037 142.469 16.9037C141.778 16.9037 141.172 17.084 140.652 17.4446C140.136 17.8001 139.733 18.3035 139.442 18.9545C139.157 19.6006 139.014 20.3593 139.014 21.2307C139.014 22.1221 139.154 22.8984 139.435 23.5594C139.72 24.2205 140.121 24.7338 140.636 25.0994C141.157 25.465 141.768 25.6478 142.469 25.6478C142.93 25.6478 143.348 25.5677 143.724 25.4074C144.1 25.2472 144.418 25.0168 144.678 24.7163C144.938 24.4158 145.124 24.0552 145.234 23.6346H147.007C146.907 24.3157 146.659 24.9292 146.263 25.475C145.872 26.0159 145.354 26.4466 144.708 26.7671C144.067 27.0826 143.321 27.2404 142.469 27.2404ZM156.87 22.2824V15.4614H158.643V27H156.87V25.0468H156.75C156.48 25.6328 156.059 26.1311 155.488 26.5418C154.917 26.9474 154.196 27.1502 153.324 27.1502C152.603 27.1502 151.962 26.9925 151.401 26.677C150.84 26.3565 150.4 25.8757 150.079 25.2346C149.759 24.5886 149.598 23.7748 149.598 22.7932V15.4614H151.371V22.673C151.371 23.5144 151.607 24.1855 152.077 24.6863C152.553 25.1871 153.159 25.4375 153.895 25.4375C154.336 25.4375 154.784 25.3248 155.24 25.0994C155.701 24.8741 156.086 24.5285 156.397 24.0628C156.712 23.597 156.87 23.0035 156.87 22.2824ZM161.89 27V15.4614H163.663V27H161.89ZM162.792 13.5383C162.446 13.5383 162.148 13.4206 161.898 13.1852C161.652 12.9498 161.53 12.6669 161.53 12.3363C161.53 12.0058 161.652 11.7228 161.898 11.4874C162.148 11.2521 162.446 11.1344 162.792 11.1344C163.137 11.1344 163.433 11.2521 163.678 11.4874C163.928 11.7228 164.054 12.0058 164.054 12.3363C164.054 12.6669 163.928 12.9498 163.678 13.1852C163.433 13.4206 163.137 13.5383 162.792 13.5383ZM171.928 15.4614V16.9638H165.949V15.4614H171.928ZM167.691 12.6969H169.464V23.6947C169.464 24.1955 169.537 24.5711 169.682 24.8215C169.832 25.0669 170.023 25.2321 170.253 25.3173C170.488 25.3974 170.736 25.4375 170.997 25.4375C171.192 25.4375 171.352 25.4275 171.478 25.4074C171.603 25.3824 171.703 25.3624 171.778 25.3473L172.139 26.9399C172.018 26.985 171.851 27.03 171.635 27.0751C171.42 27.1252 171.147 27.1502 170.816 27.1502C170.316 27.1502 169.825 27.0426 169.344 26.8272C168.868 26.6119 168.473 26.2838 168.157 25.8431C167.847 25.4024 167.691 24.8465 167.691 24.1754V12.6969ZM182.562 18.0455L180.969 18.4963C180.869 18.2308 180.721 17.9729 180.526 17.7225C180.336 17.4671 180.075 17.2568 179.745 17.0915C179.414 16.9262 178.991 16.8436 178.475 16.8436C177.769 16.8436 177.18 17.0064 176.71 17.3319C176.244 17.6524 176.011 18.0606 176.011 18.5564C176.011 18.9971 176.171 19.3451 176.492 19.6006C176.812 19.856 177.313 20.0688 177.994 20.2391L179.707 20.6598C180.739 20.9102 181.507 21.2933 182.013 21.8091C182.519 22.3199 182.772 22.9785 182.772 23.7848C182.772 24.4459 182.582 25.0368 182.201 25.5577C181.825 26.0785 181.3 26.4892 180.624 26.7897C179.947 27.0901 179.161 27.2404 178.265 27.2404C177.088 27.2404 176.114 26.985 175.343 26.4742C174.571 25.9633 174.083 25.2171 173.878 24.2355L175.56 23.8149C175.721 24.4359 176.024 24.9016 176.469 25.2121C176.92 25.5226 177.509 25.6779 178.235 25.6779C179.061 25.6779 179.717 25.5026 180.203 25.152C180.694 24.7964 180.939 24.3708 180.939 23.875C180.939 23.4743 180.799 23.1388 180.518 22.8683C180.238 22.5929 179.807 22.3876 179.226 22.2523L177.303 21.8016C176.246 21.5512 175.47 21.1631 174.974 20.6372C174.484 20.1064 174.238 19.4428 174.238 18.6465C174.238 17.9955 174.421 17.4195 174.787 16.9187C175.157 16.4179 175.661 16.0248 176.297 15.7393C176.938 15.4539 177.664 15.3111 178.475 15.3111C179.617 15.3111 180.513 15.5615 181.164 16.0623C181.82 16.5631 182.286 17.2242 182.562 18.0455Z" fill="#FEFEFE"/>
<path d="M2.15062 45.4913C1.83725 45.4913 1.55286 45.4323 1.29745 45.3143C1.04204 45.1941 0.839212 45.0213 0.68897 44.7959C0.538727 44.5684 0.463606 44.2937 0.463606 43.9717C0.463606 43.6884 0.51941 43.4588 0.631019 43.2828C0.742628 43.1046 0.891797 42.9651 1.07853 42.8642C1.26526 42.7634 1.4713 42.6882 1.69667 42.6389C1.92418 42.5874 2.15276 42.5466 2.38242 42.5165C2.6829 42.4779 2.92651 42.4489 3.11324 42.4296C3.30212 42.4081 3.43948 42.3727 3.52534 42.3234C3.61333 42.274 3.65733 42.1881 3.65733 42.0658V42.04C3.65733 41.7224 3.57041 41.4756 3.39656 41.2996C3.22485 41.1236 2.96407 41.0356 2.61422 41.0356C2.25149 41.0356 1.9671 41.115 1.76106 41.2738C1.55501 41.4326 1.41013 41.6022 1.32643 41.7825L0.605263 41.5249C0.734042 41.2244 0.905748 40.9905 1.12038 40.8231C1.33716 40.6535 1.57325 40.5355 1.82867 40.4689C2.08623 40.4003 2.33949 40.3659 2.58847 40.3659C2.74729 40.3659 2.92973 40.3852 3.13578 40.4239C3.34397 40.4603 3.54465 40.5365 3.73782 40.6524C3.93314 40.7683 4.09518 40.9433 4.22396 41.1772C4.35274 41.4112 4.41713 41.7245 4.41713 42.1173V45.3754H3.65733V44.7058H3.6187C3.56719 44.8131 3.48134 44.9279 3.36114 45.0503C3.24095 45.1726 3.08105 45.2767 2.88144 45.3625C2.68183 45.4484 2.43822 45.4913 2.15062 45.4913ZM2.26652 44.8088C2.567 44.8088 2.82027 44.7498 3.02632 44.6317C3.23451 44.5137 3.39119 44.3613 3.49636 44.1746C3.60368 43.9878 3.65733 43.7914 3.65733 43.5854V42.89C3.62514 42.9286 3.55431 42.964 3.44485 42.9962C3.33753 43.0263 3.21305 43.0531 3.07139 43.0767C2.93188 43.0982 2.79559 43.1175 2.66251 43.1347C2.53159 43.1497 2.42534 43.1626 2.34378 43.1733C2.14632 43.1991 1.96174 43.2409 1.79003 43.2989C1.62047 43.3547 1.48311 43.4394 1.37794 43.5532C1.27492 43.6648 1.2234 43.8172 1.2234 44.0104C1.2234 44.2744 1.32106 44.474 1.51638 44.6092C1.71384 44.7423 1.96389 44.8088 2.26652 44.8088ZM7.67123 45.4785C7.25913 45.4785 6.89533 45.3744 6.57982 45.1662C6.26431 44.9558 6.01748 44.6596 5.83934 44.2776C5.66119 43.8934 5.57212 43.4394 5.57212 42.9157C5.57212 42.3963 5.66119 41.9456 5.83934 41.5636C6.01748 41.1815 6.26538 40.8864 6.58304 40.6782C6.9007 40.47 7.26772 40.3659 7.6841 40.3659C8.00605 40.3659 8.26039 40.4196 8.44712 40.5269C8.636 40.6321 8.7798 40.7522 8.87853 40.8875C8.97941 41.0205 9.05775 41.13 9.11356 41.2159H9.17794V38.7819H9.93774V45.3754H9.2037V44.6156H9.11356C9.05775 44.7058 8.97834 44.8195 8.87531 44.9569C8.77229 45.0921 8.62527 45.2134 8.43424 45.3207C8.24322 45.4259 7.98888 45.4785 7.67123 45.4785ZM7.77425 44.7959C8.07903 44.7959 8.33659 44.7165 8.54693 44.5577C8.75727 44.3967 8.91717 44.1746 9.02663 43.8912C9.13609 43.6058 9.19082 43.2763 9.19082 42.9029C9.19082 42.5337 9.13716 42.2107 9.02985 41.9338C8.92253 41.6548 8.7637 41.438 8.55336 41.2835C8.34303 41.1268 8.08332 41.0484 7.77425 41.0484C7.4523 41.0484 7.18401 41.1311 6.96938 41.2963C6.75689 41.4595 6.59699 41.6816 6.48968 41.9628C6.38451 42.2418 6.33192 42.5552 6.33192 42.9029C6.33192 43.2549 6.38558 43.5747 6.4929 43.8623C6.60236 44.1477 6.76333 44.3752 6.97582 44.5448C7.19045 44.7122 7.45659 44.7959 7.77425 44.7959ZM15.4785 40.4303L13.6498 45.3754H12.8771L11.0485 40.4303H11.8727L13.2377 44.3709H13.2892L14.6543 40.4303H15.4785ZM17.786 45.4913C17.4727 45.4913 17.1883 45.4323 16.9329 45.3143C16.6775 45.1941 16.4746 45.0213 16.3244 44.7959C16.1742 44.5684 16.099 44.2937 16.099 43.9717C16.099 43.6884 16.1548 43.4588 16.2664 43.2828C16.3781 43.1046 16.5272 42.9651 16.714 42.8642C16.9007 42.7634 17.1067 42.6882 17.3321 42.6389C17.5596 42.5874 17.7882 42.5466 18.0178 42.5165C18.3183 42.4779 18.5619 42.4489 18.7487 42.4296C18.9375 42.4081 19.0749 42.3727 19.1608 42.3234C19.2488 42.274 19.2928 42.1881 19.2928 42.0658V42.04C19.2928 41.7224 19.2058 41.4756 19.032 41.2996C18.8603 41.1236 18.5995 41.0356 18.2496 41.0356C17.8869 41.0356 17.6025 41.115 17.3965 41.2738C17.1904 41.4326 17.0456 41.6022 16.9619 41.7825L16.2407 41.5249C16.3695 41.2244 16.5412 40.9905 16.7558 40.8231C16.9726 40.6535 17.2087 40.5355 17.4641 40.4689C17.7217 40.4003 17.9749 40.3659 18.2239 40.3659C18.3827 40.3659 18.5652 40.3852 18.7712 40.4239C18.9794 40.4603 19.1801 40.5365 19.3732 40.6524C19.5686 40.7683 19.7306 40.9433 19.8594 41.1772C19.9882 41.4112 20.0526 41.7245 20.0526 42.1173V45.3754H19.2928V44.7058H19.2541C19.2026 44.8131 19.1168 44.9279 18.9966 45.0503C18.8764 45.1726 18.7165 45.2767 18.5169 45.3625C18.3173 45.4484 18.0736 45.4913 17.786 45.4913ZM17.9019 44.8088C18.2024 44.8088 18.4557 44.7498 18.6617 44.6317C18.8699 44.5137 19.0266 44.3613 19.1318 44.1746C19.2391 43.9878 19.2928 43.7914 19.2928 43.5854V42.89C19.2606 42.9286 19.1897 42.964 19.0803 42.9962C18.973 43.0263 18.8485 43.0531 18.7068 43.0767C18.5673 43.0982 18.431 43.1175 18.2979 43.1347C18.167 43.1497 18.0608 43.1626 17.9792 43.1733C17.7817 43.1991 17.5972 43.2409 17.4255 43.2989C17.2559 43.3547 17.1185 43.4394 17.0134 43.5532C16.9103 43.6648 16.8588 43.8172 16.8588 44.0104C16.8588 44.2744 16.9565 44.474 17.1518 44.6092C17.3493 44.7423 17.5993 44.8088 17.9019 44.8088ZM22.1991 42.4006V45.3754H21.4394V40.4303H22.1734V41.203H22.2378C22.3537 40.9519 22.5297 40.7501 22.7658 40.5977C23.0019 40.4432 23.3067 40.3659 23.6801 40.3659C24.0149 40.3659 24.3079 40.4346 24.559 40.572C24.8102 40.7072 25.0055 40.9132 25.145 41.1901C25.2845 41.4648 25.3542 41.8125 25.3542 42.2332V45.3754H24.5944V42.2847C24.5944 41.8962 24.4936 41.5936 24.2918 41.3768C24.0901 41.1579 23.8132 41.0484 23.4612 41.0484C23.2187 41.0484 23.0019 41.101 22.8109 41.2062C22.622 41.3114 22.4728 41.4648 22.3633 41.6666C22.2539 41.8683 22.1991 42.113 22.1991 42.4006ZM28.7516 45.4785C28.288 45.4785 27.8888 45.369 27.554 45.1501C27.2191 44.9311 26.9616 44.6296 26.7813 44.2454C26.601 43.8612 26.5108 43.4223 26.5108 42.9286C26.5108 42.4264 26.6031 41.9832 26.7877 41.599C26.9744 41.2126 27.2342 40.9111 27.5668 40.6943C27.9017 40.4754 28.2923 40.3659 28.7387 40.3659C29.0864 40.3659 29.3998 40.4303 29.6788 40.5591C29.9578 40.6879 30.1864 40.8681 30.3646 41.1C30.5427 41.3318 30.6532 41.6022 30.6962 41.9113H29.9364C29.8784 41.6859 29.7496 41.4863 29.55 41.3124C29.3526 41.1364 29.0864 41.0484 28.7516 41.0484C28.4554 41.0484 28.1957 41.1257 27.9725 41.2802C27.7514 41.4326 27.5786 41.6483 27.4542 41.9274C27.3318 42.2042 27.2706 42.5294 27.2706 42.9029C27.2706 43.2849 27.3307 43.6176 27.4509 43.9009C27.5733 44.1842 27.745 44.4042 27.9661 44.5609C28.1893 44.7176 28.4511 44.7959 28.7516 44.7959C28.9491 44.7959 29.1283 44.7616 29.2893 44.6929C29.4502 44.6242 29.5865 44.5255 29.6981 44.3967C29.8097 44.2679 29.8892 44.1134 29.9364 43.9331H30.6962C30.6532 44.225 30.547 44.4879 30.3774 44.7219C30.21 44.9537 29.9879 45.1383 29.711 45.2756C29.4363 45.4108 29.1165 45.4785 28.7516 45.4785ZM33.8802 45.4785C33.4038 45.4785 32.9927 45.3733 32.6472 45.1629C32.3038 44.9505 32.0387 44.6543 31.852 44.2744C31.6674 43.8923 31.5751 43.448 31.5751 42.9415C31.5751 42.435 31.6674 41.9885 31.852 41.6022C32.0387 41.2137 32.2984 40.9111 32.6311 40.6943C32.9659 40.4754 33.3565 40.3659 33.803 40.3659C34.0605 40.3659 34.3149 40.4088 34.566 40.4947C34.8171 40.5805 35.0457 40.7201 35.2517 40.9132C35.4578 41.1042 35.622 41.3575 35.7443 41.673C35.8667 41.9885 35.9278 42.377 35.9278 42.8385V43.1604H32.116V42.5036H35.1552C35.1552 42.2246 35.0994 41.9757 34.9877 41.7567C34.8783 41.5378 34.7216 41.365 34.5177 41.2384C34.3159 41.1118 34.0777 41.0484 33.803 41.0484C33.5003 41.0484 33.2385 41.1236 33.0174 41.2738C32.7985 41.4219 32.63 41.6151 32.512 41.8533C32.3939 42.0916 32.3349 42.347 32.3349 42.6195V43.0574C32.3349 43.4309 32.3993 43.7474 32.5281 44.0071C32.659 44.2647 32.8403 44.4611 33.0722 44.5963C33.304 44.7294 33.5733 44.7959 33.8802 44.7959C34.0799 44.7959 34.2601 44.768 34.4211 44.7122C34.5842 44.6543 34.7248 44.5684 34.8429 44.4547C34.9609 44.3388 35.0521 44.1949 35.1165 44.0232L35.8506 44.2293C35.7733 44.4783 35.6434 44.6972 35.461 44.8861C35.2786 45.0728 35.0532 45.2187 34.7849 45.3239C34.5166 45.4269 34.2151 45.4785 33.8802 45.4785ZM38.9509 45.4785C38.5388 45.4785 38.175 45.3744 37.8595 45.1662C37.544 44.9558 37.2972 44.6596 37.119 44.2776C36.9409 43.8934 36.8518 43.4394 36.8518 42.9157C36.8518 42.3963 36.9409 41.9456 37.119 41.5636C37.2972 41.1815 37.5451 40.8864 37.8627 40.6782C38.1804 40.47 38.5474 40.3659 38.9638 40.3659C39.2858 40.3659 39.5401 40.4196 39.7268 40.5269C39.9157 40.6321 40.0595 40.7522 40.1582 40.8875C40.2591 41.0205 40.3375 41.13 40.3933 41.2159H40.4577V38.7819H41.2174V45.3754H40.4834V44.6156H40.3933C40.3375 44.7058 40.258 44.8195 40.155 44.9569C40.052 45.0921 39.905 45.2134 39.7139 45.3207C39.5229 45.4259 39.2686 45.4785 38.9509 45.4785ZM39.054 44.7959C39.3587 44.7959 39.6163 44.7165 39.8266 44.5577C40.037 44.3967 40.1969 44.1746 40.3063 43.8912C40.4158 43.6058 40.4705 43.2763 40.4705 42.9029C40.4705 42.5337 40.4169 42.2107 40.3096 41.9338C40.2022 41.6548 40.0434 41.438 39.8331 41.2835C39.6227 41.1268 39.363 41.0484 39.054 41.0484C38.732 41.0484 38.4637 41.1311 38.2491 41.2963C38.0366 41.4595 37.8767 41.6816 37.7694 41.9628C37.6642 42.2418 37.6116 42.5552 37.6116 42.9029C37.6116 43.2549 37.6653 43.5747 37.7726 43.8623C37.8821 44.1477 38.043 44.3752 38.2555 44.5448C38.4702 44.7122 38.7363 44.7959 39.054 44.7959ZM48.7671 41.5378L48.0846 41.731C48.0417 41.6172 47.9784 41.5067 47.8947 41.3994C47.8131 41.2899 47.7015 41.1998 47.5598 41.1289C47.4182 41.0581 47.2368 41.0227 47.0157 41.0227C46.7131 41.0227 46.4609 41.0924 46.2592 41.232C46.0596 41.3693 45.9597 41.5442 45.9597 41.7567C45.9597 41.9456 46.0284 42.0948 46.1658 42.2042C46.3032 42.3137 46.5178 42.4049 46.8097 42.4779L47.5437 42.6582C47.9859 42.7655 48.3153 42.9297 48.5321 43.1508C48.7489 43.3697 48.8573 43.6519 48.8573 43.9975C48.8573 44.2808 48.7757 44.5341 48.6126 44.7573C48.4516 44.9805 48.2263 45.1565 47.9365 45.2853C47.6468 45.4141 47.3098 45.4785 46.9256 45.4785C46.4212 45.4785 46.0037 45.369 45.6732 45.1501C45.3427 44.9311 45.1334 44.6113 45.0454 44.1907L45.7666 44.0104C45.8353 44.2765 45.9651 44.4761 46.1561 44.6092C46.3493 44.7423 46.6015 44.8088 46.9127 44.8088C47.2669 44.8088 47.548 44.7337 47.7562 44.5834C47.9666 44.431 48.0717 44.2486 48.0717 44.0361C48.0717 43.8644 48.0116 43.7206 47.8914 43.6047C47.7712 43.4867 47.5867 43.3987 47.3377 43.3407L46.5135 43.1475C46.0606 43.0402 45.7279 42.8739 45.5155 42.6485C45.3051 42.421 45.2 42.1366 45.2 41.7954C45.2 41.5163 45.2783 41.2695 45.435 41.0549C45.5938 40.8402 45.8095 40.6718 46.0821 40.5494C46.3568 40.4271 46.668 40.3659 47.0157 40.3659C47.5051 40.3659 47.8893 40.4732 48.1683 40.6879C48.4495 40.9025 48.6491 41.1858 48.7671 41.5378ZM53.1175 43.3536V40.4303H53.8773V45.3754H53.1175V44.5384H53.066C52.9501 44.7895 52.7698 45.003 52.5251 45.179C52.2804 45.3529 51.9713 45.4398 51.5979 45.4398C51.2888 45.4398 51.0141 45.3722 50.7737 45.237C50.5333 45.0996 50.3444 44.8936 50.2071 44.6188C50.0697 44.342 50.001 43.9932 50.001 43.5725V40.4303H50.7608V43.521C50.7608 43.8816 50.8617 44.1692 51.0634 44.3838C51.2673 44.5985 51.527 44.7058 51.8425 44.7058C52.0314 44.7058 52.2235 44.6575 52.4188 44.5609C52.6163 44.4643 52.7816 44.3162 52.9146 44.1166C53.0499 43.917 53.1175 43.6627 53.1175 43.3536ZM55.2689 47.2299V40.4303H56.0029V41.2159H56.0931C56.1489 41.13 56.2261 41.0205 56.3249 40.8875C56.4258 40.7522 56.5696 40.6321 56.7563 40.5269C56.9452 40.4196 57.2006 40.3659 57.5225 40.3659C57.9389 40.3659 58.3059 40.47 58.6236 40.6782C58.9412 40.8864 59.1891 41.1815 59.3673 41.5636C59.5454 41.9456 59.6345 42.3963 59.6345 42.9157C59.6345 43.4394 59.5454 43.8934 59.3673 44.2776C59.1891 44.6596 58.9423 44.9558 58.6268 45.1662C58.3113 45.3744 57.9475 45.4785 57.5354 45.4785C57.2177 45.4785 56.9634 45.4259 56.7724 45.3207C56.5814 45.2134 56.4343 45.0921 56.3313 44.9569C56.2283 44.8195 56.1489 44.7058 56.0931 44.6156H56.0287V47.2299H55.2689ZM56.0158 42.9029C56.0158 43.2763 56.0705 43.6058 56.18 43.8912C56.2895 44.1746 56.4494 44.3967 56.6597 44.5577C56.87 44.7165 57.1276 44.7959 57.4324 44.7959C57.75 44.7959 58.0151 44.7122 58.2276 44.5448C58.4422 44.3752 58.6032 44.1477 58.7105 43.8623C58.82 43.5747 58.8747 43.2549 58.8747 42.9029C58.8747 42.5552 58.8211 42.2418 58.7137 41.9628C58.6086 41.6816 58.4487 41.4595 58.234 41.2963C58.0215 41.1311 57.7543 41.0484 57.4324 41.0484C57.1233 41.0484 56.8636 41.1268 56.6533 41.2835C56.4429 41.438 56.2841 41.6548 56.1768 41.9338C56.0695 42.2107 56.0158 42.5337 56.0158 42.9029ZM60.7935 47.2299V40.4303H61.5276V41.2159H61.6177C61.6735 41.13 61.7508 41.0205 61.8495 40.8875C61.9504 40.7522 62.0942 40.6321 62.2809 40.5269C62.4698 40.4196 62.7252 40.3659 63.0472 40.3659C63.4635 40.3659 63.8306 40.47 64.1482 40.6782C64.4659 40.8864 64.7138 41.1815 64.8919 41.5636C65.0701 41.9456 65.1591 42.3963 65.1591 42.9157C65.1591 43.4394 65.0701 43.8934 64.8919 44.2776C64.7138 44.6596 64.467 44.9558 64.1514 45.1662C63.8359 45.3744 63.4721 45.4785 63.06 45.4785C62.7424 45.4785 62.488 45.4259 62.297 45.3207C62.106 45.2134 61.959 45.0921 61.856 44.9569C61.7529 44.8195 61.6735 44.7058 61.6177 44.6156H61.5533V47.2299H60.7935ZM61.5404 42.9029C61.5404 43.2763 61.5952 43.6058 61.7046 43.8912C61.8141 44.1746 61.974 44.3967 62.1843 44.5577C62.3947 44.7165 62.6522 44.7959 62.957 44.7959C63.2747 44.7959 63.5397 44.7122 63.7522 44.5448C63.9669 44.3752 64.1278 44.1477 64.2352 43.8623C64.3446 43.5747 64.3993 43.2549 64.3993 42.9029C64.3993 42.5552 64.3457 42.2418 64.2384 41.9628C64.1332 41.6816 63.9733 41.4595 63.7587 41.2963C63.5462 41.1311 63.279 41.0484 62.957 41.0484C62.6479 41.0484 62.3882 41.1268 62.1779 41.2835C61.9676 41.438 61.8087 41.6548 61.7014 41.9338C61.5941 42.2107 61.5404 42.5337 61.5404 42.9029ZM68.3271 45.4785C67.8807 45.4785 67.489 45.3722 67.152 45.1597C66.8172 44.9472 66.5553 44.65 66.3665 44.2679C66.1797 43.8859 66.0864 43.4394 66.0864 42.9286C66.0864 42.4135 66.1797 41.9638 66.3665 41.5797C66.5553 41.1955 66.8172 40.8971 67.152 40.6846C67.489 40.4722 67.8807 40.3659 68.3271 40.3659C68.7736 40.3659 69.1642 40.4722 69.499 40.6846C69.836 40.8971 70.0978 41.1955 70.2846 41.5797C70.4734 41.9638 70.5679 42.4135 70.5679 42.9286C70.5679 43.4394 70.4734 43.8859 70.2846 44.2679C70.0978 44.65 69.836 44.9472 69.499 45.1597C69.1642 45.3722 68.7736 45.4785 68.3271 45.4785ZM68.3271 44.7959C68.6662 44.7959 68.9453 44.709 69.1642 44.5351C69.3831 44.3613 69.5452 44.1327 69.6503 43.8494C69.7555 43.5661 69.8081 43.2592 69.8081 42.9286C69.8081 42.5981 69.7555 42.2901 69.6503 42.0046C69.5452 41.7192 69.3831 41.4884 69.1642 41.3124C68.9453 41.1364 68.6662 41.0484 68.3271 41.0484C67.988 41.0484 67.709 41.1364 67.4901 41.3124C67.2711 41.4884 67.1091 41.7192 67.0039 42.0046C66.8987 42.2901 66.8462 42.5981 66.8462 42.9286C66.8462 43.2592 66.8987 43.5661 67.0039 43.8494C67.1091 44.1327 67.2711 44.3613 67.4901 44.5351C67.709 44.709 67.988 44.7959 68.3271 44.7959ZM71.7277 45.3754V40.4303H72.4617V41.1772H72.5133C72.6034 40.9325 72.7665 40.734 73.0026 40.5816C73.2387 40.4292 73.5049 40.353 73.801 40.353C73.8568 40.353 73.9266 40.3541 74.0103 40.3563C74.094 40.3584 74.1573 40.3616 74.2003 40.3659V41.1386C74.1745 41.1321 74.1155 41.1225 74.0232 41.1096C73.933 41.0946 73.8375 41.0871 73.7367 41.0871C73.4963 41.0871 73.2816 41.1375 73.0928 41.2384C72.906 41.3371 72.7579 41.4745 72.6485 41.6505C72.5412 41.8243 72.4875 42.0229 72.4875 42.2461V45.3754H71.7277ZM77.5614 40.4303V41.0742H74.9987V40.4303H77.5614ZM75.7456 39.2455H76.5054V43.9589C76.5054 44.1735 76.5365 44.3345 76.5988 44.4418C76.6632 44.5469 76.7447 44.6178 76.8435 44.6543C76.9443 44.6886 77.0506 44.7058 77.1622 44.7058C77.2459 44.7058 77.3146 44.7015 77.3682 44.6929C77.4219 44.6822 77.4648 44.6736 77.497 44.6671L77.6515 45.3497C77.6 45.369 77.5281 45.3883 77.4358 45.4076C77.3436 45.4291 77.2266 45.4398 77.0849 45.4398C76.8703 45.4398 76.6599 45.3937 76.4539 45.3014C76.25 45.2091 76.0804 45.0685 75.9452 44.8796C75.8121 44.6908 75.7456 44.4525 75.7456 44.1649V39.2455ZM83.4563 40.4303V41.0742H80.7905V40.4303H83.4563ZM81.589 45.3754V39.7478C81.589 39.4645 81.6555 39.2284 81.7886 39.0395C81.9217 38.8506 82.0944 38.7089 82.3069 38.6145C82.5194 38.5201 82.7437 38.4729 82.9798 38.4729C83.1665 38.4729 83.3189 38.4879 83.437 38.5179C83.555 38.548 83.643 38.5759 83.701 38.6016L83.482 39.2584C83.4434 39.2455 83.3897 39.2294 83.3211 39.2101C83.2545 39.1908 83.1665 39.1811 83.0571 39.1811C82.8059 39.1811 82.6246 39.2445 82.513 39.3711C82.4035 39.4977 82.3488 39.6834 82.3488 39.9281V45.3754H81.589ZM86.3264 45.4785C85.88 45.4785 85.4883 45.3722 85.1513 45.1597C84.8165 44.9472 84.5547 44.65 84.3658 44.2679C84.179 43.8859 84.0857 43.4394 84.0857 42.9286C84.0857 42.4135 84.179 41.9638 84.3658 41.5797C84.5547 41.1955 84.8165 40.8971 85.1513 40.6846C85.4883 40.4722 85.88 40.3659 86.3264 40.3659C86.7729 40.3659 87.1635 40.4722 87.4983 40.6846C87.8353 40.8971 88.0972 41.1955 88.2839 41.5797C88.4728 41.9638 88.5672 42.4135 88.5672 42.9286C88.5672 43.4394 88.4728 43.8859 88.2839 44.2679C88.0972 44.65 87.8353 44.9472 87.4983 45.1597C87.1635 45.3722 86.7729 45.4785 86.3264 45.4785ZM86.3264 44.7959C86.6656 44.7959 86.9446 44.709 87.1635 44.5351C87.3824 44.3613 87.5445 44.1327 87.6497 43.8494C87.7548 43.5661 87.8074 43.2592 87.8074 42.9286C87.8074 42.5981 87.7548 42.2901 87.6497 42.0046C87.5445 41.7192 87.3824 41.4884 87.1635 41.3124C86.9446 41.1364 86.6656 41.0484 86.3264 41.0484C85.9873 41.0484 85.7083 41.1364 85.4894 41.3124C85.2705 41.4884 85.1084 41.7192 85.0032 42.0046C84.8981 42.2901 84.8455 42.5981 84.8455 42.9286C84.8455 43.2592 84.8981 43.5661 85.0032 43.8494C85.1084 44.1327 85.2705 44.3613 85.4894 44.5351C85.7083 44.709 85.9873 44.7959 86.3264 44.7959ZM89.727 45.3754V40.4303H90.4611V41.1772H90.5126C90.6027 40.9325 90.7658 40.734 91.0019 40.5816C91.238 40.4292 91.5042 40.353 91.8004 40.353C91.8562 40.353 91.9259 40.3541 92.0096 40.3563C92.0933 40.3584 92.1567 40.3616 92.1996 40.3659V41.1386C92.1738 41.1321 92.1148 41.1225 92.0225 41.1096C91.9324 41.0946 91.8369 41.0871 91.736 41.0871C91.4956 41.0871 91.281 41.1375 91.0921 41.2384C90.9054 41.3371 90.7573 41.4745 90.6478 41.6505C90.5405 41.8243 90.4868 42.0229 90.4868 42.2461V45.3754H89.727ZM97.8007 40.4303V41.0742H95.238V40.4303H97.8007ZM95.9849 39.2455H96.7447V43.9589C96.7447 44.1735 96.7758 44.3345 96.8381 44.4418C96.9025 44.5469 96.984 44.6178 97.0827 44.6543C97.1836 44.6886 97.2899 44.7058 97.4015 44.7058C97.4852 44.7058 97.5539 44.7015 97.6075 44.6929C97.6612 44.6822 97.7041 44.6736 97.7363 44.6671L97.8908 45.3497C97.8393 45.369 97.7674 45.3883 97.6751 45.4076C97.5828 45.4291 97.4659 45.4398 97.3242 45.4398C97.1096 45.4398 96.8992 45.3937 96.6932 45.3014C96.4893 45.2091 96.3197 45.0685 96.1845 44.8796C96.0514 44.6908 95.9849 44.4525 95.9849 44.1649V39.2455ZM100.899 45.4785C100.453 45.4785 100.061 45.3722 99.7243 45.1597C99.3895 44.9472 99.1277 44.65 98.9388 44.2679C98.752 43.8859 98.6587 43.4394 98.6587 42.9286C98.6587 42.4135 98.752 41.9638 98.9388 41.5797C99.1277 41.1955 99.3895 40.8971 99.7243 40.6846C100.061 40.4722 100.453 40.3659 100.899 40.3659C101.346 40.3659 101.737 40.4722 102.071 40.6846C102.408 40.8971 102.67 41.1955 102.857 41.5797C103.046 41.9638 103.14 42.4135 103.14 42.9286C103.14 43.4394 103.046 43.8859 102.857 44.2679C102.67 44.65 102.408 44.9472 102.071 45.1597C101.737 45.3722 101.346 45.4785 100.899 45.4785ZM100.899 44.7959C101.239 44.7959 101.518 44.709 101.737 44.5351C101.955 44.3613 102.117 44.1327 102.223 43.8494C102.328 43.5661 102.38 43.2592 102.38 42.9286C102.38 42.5981 102.328 42.2901 102.223 42.0046C102.117 41.7192 101.955 41.4884 101.737 41.3124C101.518 41.1364 101.239 41.0484 100.899 41.0484C100.56 41.0484 100.281 41.1364 100.062 41.3124C99.8435 41.4884 99.6814 41.7192 99.5762 42.0046C99.4711 42.2901 99.4185 42.5981 99.4185 42.9286C99.4185 43.2592 99.4711 43.5661 99.5762 43.8494C99.6814 44.1327 99.8435 44.3613 100.062 44.5351C100.281 44.709 100.56 44.7959 100.899 44.7959ZM106.167 45.4785C105.755 45.4785 105.391 45.3744 105.076 45.1662C104.76 44.9558 104.514 44.6596 104.335 44.2776C104.157 43.8934 104.068 43.4394 104.068 42.9157C104.068 42.3963 104.157 41.9456 104.335 41.5636C104.514 41.1815 104.761 40.8864 105.079 40.6782C105.397 40.47 105.764 40.3659 106.18 40.3659C106.502 40.3659 106.756 40.4196 106.943 40.5269C107.132 40.6321 107.276 40.7522 107.375 40.8875C107.476 41.0205 107.554 41.13 107.61 41.2159H107.674V38.7819H108.434V45.3754H107.7V44.6156H107.61C107.554 44.7058 107.474 44.8195 107.371 44.9569C107.268 45.0921 107.121 45.2134 106.93 45.3207C106.739 45.4259 106.485 45.4785 106.167 45.4785ZM106.27 44.7959C106.575 44.7959 106.833 44.7165 107.043 44.5577C107.253 44.3967 107.413 44.1746 107.523 43.8912C107.632 43.6058 107.687 43.2763 107.687 42.9029C107.687 42.5337 107.633 42.2107 107.526 41.9338C107.419 41.6548 107.26 41.438 107.049 41.2835C106.839 41.1268 106.579 41.0484 106.27 41.0484C105.948 41.0484 105.68 41.1311 105.465 41.2963C105.253 41.4595 105.093 41.6816 104.986 41.9628C104.881 42.2418 104.828 42.5552 104.828 42.9029C104.828 43.2549 104.882 43.5747 104.989 43.8623C105.098 44.1477 105.259 44.3752 105.472 44.5448C105.687 44.7122 105.953 44.7959 106.27 44.7959ZM111.386 45.4913C111.073 45.4913 110.788 45.4323 110.533 45.3143C110.278 45.1941 110.075 45.0213 109.924 44.7959C109.774 44.5684 109.699 44.2937 109.699 43.9717C109.699 43.6884 109.755 43.4588 109.867 43.2828C109.978 43.1046 110.127 42.9651 110.314 42.8642C110.501 42.7634 110.707 42.6882 110.932 42.6389C111.16 42.5874 111.388 42.5466 111.618 42.5165C111.918 42.4779 112.162 42.4489 112.349 42.4296C112.538 42.4081 112.675 42.3727 112.761 42.3234C112.849 42.274 112.893 42.1881 112.893 42.0658V42.04C112.893 41.7224 112.806 41.4756 112.632 41.2996C112.46 41.1236 112.2 41.0356 111.85 41.0356C111.487 41.0356 111.203 41.115 110.997 41.2738C110.79 41.4326 110.646 41.6022 110.562 41.7825L109.841 41.5249C109.97 41.2244 110.141 40.9905 110.356 40.8231C110.573 40.6535 110.809 40.5355 111.064 40.4689C111.322 40.4003 111.575 40.3659 111.824 40.3659C111.983 40.3659 112.165 40.3852 112.371 40.4239C112.579 40.4603 112.78 40.5365 112.973 40.6524C113.169 40.7683 113.331 40.9433 113.459 41.1772C113.588 41.4112 113.653 41.7245 113.653 42.1173V45.3754H112.893V44.7058H112.854C112.803 44.8131 112.717 44.9279 112.597 45.0503C112.476 45.1726 112.317 45.2767 112.117 45.3625C111.917 45.4484 111.674 45.4913 111.386 45.4913ZM111.502 44.8088C111.802 44.8088 112.056 44.7498 112.262 44.6317C112.47 44.5137 112.627 44.3613 112.732 44.1746C112.839 43.9878 112.893 43.7914 112.893 43.5854V42.89C112.861 42.9286 112.79 42.964 112.68 42.9962C112.573 43.0263 112.449 43.0531 112.307 43.0767C112.167 43.0982 112.031 43.1175 111.898 43.1347C111.767 43.1497 111.661 43.1626 111.579 43.1733C111.382 43.1991 111.197 43.2409 111.026 43.2989C110.856 43.3547 110.719 43.4394 110.613 43.5532C110.51 43.6648 110.459 43.8172 110.459 44.0104C110.459 44.2744 110.557 44.474 110.752 44.6092C110.949 44.7423 111.199 44.8088 111.502 44.8088ZM115.352 47.2299C115.223 47.2299 115.108 47.2191 115.007 47.1977C114.906 47.1783 114.837 47.159 114.798 47.1397L114.991 46.4701C115.176 46.5173 115.339 46.5344 115.48 46.5216C115.622 46.5087 115.748 46.4454 115.857 46.3316C115.969 46.22 116.071 46.0386 116.163 45.7875L116.305 45.4012L114.476 40.4303H115.3L116.665 44.3709H116.717L118.082 40.4303H118.906L116.807 46.0966C116.712 46.352 116.596 46.5634 116.456 46.7308C116.316 46.9004 116.154 47.0259 115.97 47.1075C115.787 47.1891 115.581 47.2299 115.352 47.2299ZM120.897 38.7819V39.3614C120.897 39.5374 120.865 39.7252 120.801 39.9248C120.738 40.1223 120.646 40.3144 120.524 40.5011C120.404 40.6857 120.258 40.8467 120.086 40.9841L119.674 40.6492C119.809 40.4561 119.926 40.2554 120.025 40.0472C120.126 39.8368 120.176 39.6126 120.176 39.3743V38.7819H120.897ZM124.704 41.5378L124.022 41.731C123.979 41.6172 123.916 41.5067 123.832 41.3994C123.75 41.2899 123.639 41.1998 123.497 41.1289C123.355 41.0581 123.174 41.0227 122.953 41.0227C122.65 41.0227 122.398 41.0924 122.196 41.232C121.997 41.3693 121.897 41.5442 121.897 41.7567C121.897 41.9456 121.966 42.0948 122.103 42.2042C122.24 42.3137 122.455 42.4049 122.747 42.4779L123.481 42.6582C123.923 42.7655 124.253 42.9297 124.469 43.1508C124.686 43.3697 124.794 43.6519 124.794 43.9975C124.794 44.2808 124.713 44.5341 124.55 44.7573C124.389 44.9805 124.163 45.1565 123.874 45.2853C123.584 45.4141 123.247 45.4785 122.863 45.4785C122.358 45.4785 121.941 45.369 121.61 45.1501C121.28 44.9311 121.071 44.6113 120.983 44.1907L121.704 44.0104C121.772 44.2765 121.902 44.4761 122.093 44.6092C122.286 44.7423 122.539 44.8088 122.85 44.8088C123.204 44.8088 123.485 44.7337 123.693 44.5834C123.904 44.431 124.009 44.2486 124.009 44.0361C124.009 43.8644 123.949 43.7206 123.829 43.6047C123.708 43.4867 123.524 43.3987 123.275 43.3407L122.451 43.1475C121.998 43.0402 121.665 42.8739 121.453 42.6485C121.242 42.421 121.137 42.1366 121.137 41.7954C121.137 41.5163 121.215 41.2695 121.372 41.0549C121.531 40.8402 121.747 40.6718 122.019 40.5494C122.294 40.4271 122.605 40.3659 122.953 40.3659C123.442 40.3659 123.826 40.4732 124.105 40.6879C124.387 40.9025 124.586 41.1858 124.704 41.5378ZM130.639 40.4303V41.0742H128.076V40.4303H130.639ZM128.823 39.2455H129.583V43.9589C129.583 44.1735 129.614 44.3345 129.676 44.4418C129.74 44.5469 129.822 44.6178 129.921 44.6543C130.022 44.6886 130.128 44.7058 130.239 44.7058C130.323 44.7058 130.392 44.7015 130.445 44.6929C130.499 44.6822 130.542 44.6736 130.574 44.6671L130.729 45.3497C130.677 45.369 130.605 45.3883 130.513 45.4076C130.421 45.4291 130.304 45.4398 130.162 45.4398C129.948 45.4398 129.737 45.3937 129.531 45.3014C129.327 45.2091 129.158 45.0685 129.022 44.8796C128.889 44.6908 128.823 44.4525 128.823 44.1649V39.2455ZM133.802 45.4785C133.325 45.4785 132.914 45.3733 132.569 45.1629C132.225 44.9505 131.96 44.6543 131.773 44.2744C131.589 43.8923 131.497 43.448 131.497 42.9415C131.497 42.435 131.589 41.9885 131.773 41.6022C131.96 41.2137 132.22 40.9111 132.553 40.6943C132.887 40.4754 133.278 40.3659 133.724 40.3659C133.982 40.3659 134.236 40.4088 134.488 40.4947C134.739 40.5805 134.967 40.7201 135.173 40.9132C135.379 41.1042 135.544 41.3575 135.666 41.673C135.788 41.9885 135.849 42.377 135.849 42.8385V43.1604H132.037V42.5036H135.077C135.077 42.2246 135.021 41.9757 134.909 41.7567C134.8 41.5378 134.643 41.365 134.439 41.2384C134.237 41.1118 133.999 41.0484 133.724 41.0484C133.422 41.0484 133.16 41.1236 132.939 41.2738C132.72 41.4219 132.552 41.6151 132.433 41.8533C132.315 42.0916 132.256 42.347 132.256 42.6195V43.0574C132.256 43.4309 132.321 43.7474 132.45 44.0071C132.581 44.2647 132.762 44.4611 132.994 44.5963C133.225 44.7294 133.495 44.7959 133.802 44.7959C134.001 44.7959 134.182 44.768 134.343 44.7122C134.506 44.6543 134.646 44.5684 134.764 44.4547C134.882 44.3388 134.974 44.1949 135.038 44.0232L135.772 44.2293C135.695 44.4783 135.565 44.6972 135.383 44.8861C135.2 45.0728 134.975 45.2187 134.706 45.3239C134.438 45.4269 134.137 45.4785 133.802 45.4785ZM139.014 45.4785C138.55 45.4785 138.151 45.369 137.816 45.1501C137.482 44.9311 137.224 44.6296 137.044 44.2454C136.863 43.8612 136.773 43.4223 136.773 42.9286C136.773 42.4264 136.866 41.9832 137.05 41.599C137.237 41.2126 137.497 40.9111 137.829 40.6943C138.164 40.4754 138.555 40.3659 139.001 40.3659C139.349 40.3659 139.662 40.4303 139.941 40.5591C140.22 40.6879 140.449 40.8681 140.627 41.1C140.805 41.3318 140.916 41.6022 140.959 41.9113H140.199C140.141 41.6859 140.012 41.4863 139.813 41.3124C139.615 41.1364 139.349 41.0484 139.014 41.0484C138.718 41.0484 138.458 41.1257 138.235 41.2802C138.014 41.4326 137.841 41.6483 137.717 41.9274C137.594 42.2042 137.533 42.5294 137.533 42.9029C137.533 43.2849 137.593 43.6176 137.713 43.9009C137.836 44.1842 138.007 44.4042 138.229 44.5609C138.452 44.7176 138.714 44.7959 139.014 44.7959C139.212 44.7959 139.391 44.7616 139.552 44.6929C139.713 44.6242 139.849 44.5255 139.961 44.3967C140.072 44.2679 140.152 44.1134 140.199 43.9331H140.959C140.916 44.225 140.81 44.4879 140.64 44.7219C140.473 44.9537 140.25 45.1383 139.974 45.2756C139.699 45.4108 139.379 45.4785 139.014 45.4785ZM142.829 42.4006V45.3754H142.069V38.7819H142.829V41.203H142.894C143.009 40.9476 143.183 40.7447 143.415 40.5945C143.649 40.4421 143.96 40.3659 144.349 40.3659C144.686 40.3659 144.981 40.4335 145.234 40.5687C145.487 40.7018 145.684 40.9068 145.823 41.1837C145.965 41.4584 146.036 41.8082 146.036 42.2332V45.3754H145.276V42.2847C145.276 41.8919 145.174 41.5882 144.97 41.3736C144.768 41.1568 144.488 41.0484 144.13 41.0484C143.881 41.0484 143.658 41.101 143.46 41.2062C143.265 41.3114 143.11 41.4648 142.997 41.6666C142.885 41.8683 142.829 42.113 142.829 42.4006ZM148.186 42.4006V45.3754H147.426V40.4303H148.16V41.203H148.224C148.34 40.9519 148.516 40.7501 148.752 40.5977C148.988 40.4432 149.293 40.3659 149.667 40.3659C150.001 40.3659 150.294 40.4346 150.545 40.572C150.797 40.7072 150.992 40.9132 151.131 41.1901C151.271 41.4648 151.341 41.8125 151.341 42.2332V45.3754H150.581V42.2847C150.581 41.8962 150.48 41.5936 150.278 41.3768C150.077 41.1579 149.8 41.0484 149.448 41.0484C149.205 41.0484 148.988 41.101 148.797 41.2062C148.608 41.3114 148.459 41.4648 148.35 41.6666C148.24 41.8683 148.186 42.113 148.186 42.4006ZM154.738 45.4785C154.292 45.4785 153.9 45.3722 153.563 45.1597C153.228 44.9472 152.966 44.65 152.777 44.2679C152.591 43.8859 152.497 43.4394 152.497 42.9286C152.497 42.4135 152.591 41.9638 152.777 41.5797C152.966 41.1955 153.228 40.8971 153.563 40.6846C153.9 40.4722 154.292 40.3659 154.738 40.3659C155.185 40.3659 155.575 40.4722 155.91 40.6846C156.247 40.8971 156.509 41.1955 156.696 41.5797C156.884 41.9638 156.979 42.4135 156.979 42.9286C156.979 43.4394 156.884 43.8859 156.696 44.2679C156.509 44.65 156.247 44.9472 155.91 45.1597C155.575 45.3722 155.185 45.4785 154.738 45.4785ZM154.738 44.7959C155.077 44.7959 155.356 44.709 155.575 44.5351C155.794 44.3613 155.956 44.1327 156.061 43.8494C156.166 43.5661 156.219 43.2592 156.219 42.9286C156.219 42.5981 156.166 42.2901 156.061 42.0046C155.956 41.7192 155.794 41.4884 155.575 41.3124C155.356 41.1364 155.077 41.0484 154.738 41.0484C154.399 41.0484 154.12 41.1364 153.901 41.3124C153.682 41.4884 153.52 41.7192 153.415 42.0046C153.31 42.2901 153.257 42.5981 153.257 42.9286C153.257 43.2592 153.31 43.5661 153.415 43.8494C153.52 44.1327 153.682 44.3613 153.901 44.5351C154.12 44.709 154.399 44.7959 154.738 44.7959ZM158.898 38.7819V45.3754H158.139V38.7819H158.898ZM162.299 45.4785C161.853 45.4785 161.461 45.3722 161.124 45.1597C160.789 44.9472 160.527 44.65 160.338 44.2679C160.152 43.8859 160.058 43.4394 160.058 42.9286C160.058 42.4135 160.152 41.9638 160.338 41.5797C160.527 41.1955 160.789 40.8971 161.124 40.6846C161.461 40.4722 161.853 40.3659 162.299 40.3659C162.745 40.3659 163.136 40.4722 163.471 40.6846C163.808 40.8971 164.07 41.1955 164.256 41.5797C164.445 41.9638 164.54 42.4135 164.54 42.9286C164.54 43.4394 164.445 43.8859 164.256 44.2679C164.07 44.65 163.808 44.9472 163.471 45.1597C163.136 45.3722 162.745 45.4785 162.299 45.4785ZM162.299 44.7959C162.638 44.7959 162.917 44.709 163.136 44.5351C163.355 44.3613 163.517 44.1327 163.622 43.8494C163.727 43.5661 163.78 43.2592 163.78 42.9286C163.78 42.5981 163.727 42.2901 163.622 42.0046C163.517 41.7192 163.355 41.4884 163.136 41.3124C162.917 41.1364 162.638 41.0484 162.299 41.0484C161.96 41.0484 161.681 41.1364 161.462 41.3124C161.243 41.4884 161.081 41.7192 160.976 42.0046C160.871 42.2901 160.818 42.5981 160.818 42.9286C160.818 43.2592 160.871 43.5661 160.976 43.8494C161.081 44.1327 161.243 44.3613 161.462 44.5351C161.681 44.709 161.96 44.7959 162.299 44.7959ZM167.696 47.3329C167.329 47.3329 167.013 47.2857 166.749 47.1912C166.485 47.0989 166.265 46.9766 166.089 46.8242C165.915 46.674 165.777 46.513 165.674 46.3413L166.279 45.9163C166.348 46.0064 166.435 46.1095 166.54 46.2254C166.645 46.3434 166.789 46.4454 166.971 46.5312C167.156 46.6192 167.397 46.6632 167.696 46.6632C168.095 46.6632 168.424 46.5666 168.684 46.3735C168.944 46.1803 169.074 45.8777 169.074 45.4656V44.4611H169.009C168.953 44.5512 168.874 44.6628 168.771 44.7959C168.67 44.9268 168.524 45.0438 168.333 45.1468C168.144 45.2477 167.889 45.2982 167.567 45.2982C167.168 45.2982 166.809 45.2037 166.492 45.0148C166.176 44.826 165.926 44.5512 165.741 44.1907C165.559 43.8301 165.468 43.3922 165.468 42.8771C165.468 42.3706 165.557 41.9295 165.735 41.5539C165.913 41.1761 166.161 40.8842 166.479 40.6782C166.796 40.47 167.163 40.3659 167.58 40.3659C167.902 40.3659 168.157 40.4196 168.346 40.5269C168.537 40.6321 168.683 40.7522 168.784 40.8875C168.887 41.0205 168.966 41.13 169.022 41.2159H169.099V40.4303H169.833V45.5171C169.833 45.9421 169.737 46.2876 169.544 46.5538C169.353 46.822 169.095 47.0184 168.771 47.1429C168.449 47.2696 168.091 47.3329 167.696 47.3329ZM167.67 44.6156C167.975 44.6156 168.232 44.5459 168.443 44.4064C168.653 44.2669 168.813 44.0662 168.922 43.8043C169.032 43.5425 169.087 43.2291 169.087 42.8642C169.087 42.5079 169.033 42.1935 168.926 41.9209C168.818 41.6483 168.659 41.4348 168.449 41.2802C168.239 41.1257 167.979 41.0484 167.67 41.0484C167.348 41.0484 167.08 41.13 166.865 41.2931C166.653 41.4562 166.493 41.6752 166.385 41.9499C166.28 42.2246 166.228 42.5294 166.228 42.8642C166.228 43.2076 166.281 43.5113 166.389 43.7753C166.498 44.0372 166.659 44.2432 166.871 44.3935C167.086 44.5416 167.352 44.6156 167.67 44.6156ZM171.224 45.3754V40.4303H171.984V45.3754H171.224ZM171.611 39.6061C171.462 39.6061 171.335 39.5557 171.227 39.4548C171.122 39.3539 171.07 39.2327 171.07 39.091C171.07 38.9493 171.122 38.8281 171.227 38.7272C171.335 38.6263 171.462 38.5759 171.611 38.5759C171.759 38.5759 171.885 38.6263 171.99 38.7272C172.098 38.8281 172.151 38.9493 172.151 39.091C172.151 39.2327 172.098 39.3539 171.99 39.4548C171.885 39.5557 171.759 39.6061 171.611 39.6061ZM175.449 45.4785C174.973 45.4785 174.562 45.3733 174.216 45.1629C173.873 44.9505 173.607 44.6543 173.421 44.2744C173.236 43.8923 173.144 43.448 173.144 42.9415C173.144 42.435 173.236 41.9885 173.421 41.6022C173.607 41.2137 173.867 40.9111 174.2 40.6943C174.535 40.4754 174.925 40.3659 175.372 40.3659C175.629 40.3659 175.884 40.4088 176.135 40.4947C176.386 40.5805 176.614 40.7201 176.821 40.9132C177.027 41.1042 177.191 41.3575 177.313 41.673C177.435 41.9885 177.497 42.377 177.497 42.8385V43.1604H173.685V42.5036H176.724C176.724 42.2246 176.668 41.9757 176.557 41.7567C176.447 41.5378 176.29 41.365 176.086 41.2384C175.885 41.1118 175.646 41.0484 175.372 41.0484C175.069 41.0484 174.807 41.1236 174.586 41.2738C174.367 41.4219 174.199 41.6151 174.081 41.8533C173.963 42.0916 173.904 42.347 173.904 42.6195V43.0574C173.904 43.4309 173.968 43.7474 174.097 44.0071C174.228 44.2647 174.409 44.4611 174.641 44.5963C174.873 44.7294 175.142 44.7959 175.449 44.7959C175.649 44.7959 175.829 44.768 175.99 44.7122C176.153 44.6543 176.294 44.5684 176.412 44.4547C176.53 44.3388 176.621 44.1949 176.685 44.0232L177.419 44.2293C177.342 44.4783 177.212 44.6972 177.03 44.8861C176.847 45.0728 176.622 45.2187 176.354 45.3239C176.085 45.4269 175.784 45.4785 175.449 45.4785ZM182.155 41.5378L181.473 41.731C181.43 41.6172 181.366 41.5067 181.283 41.3994C181.201 41.2899 181.09 41.1998 180.948 41.1289C180.806 41.0581 180.625 41.0227 180.404 41.0227C180.101 41.0227 179.849 41.0924 179.647 41.232C179.448 41.3693 179.348 41.5442 179.348 41.7567C179.348 41.9456 179.416 42.0948 179.554 42.2042C179.691 42.3137 179.906 42.4049 180.198 42.4779L180.932 42.6582C181.374 42.7655 181.703 42.9297 181.92 43.1508C182.137 43.3697 182.245 43.6519 182.245 43.9975C182.245 44.2808 182.164 44.5341 182.001 44.7573C181.84 44.9805 181.614 45.1565 181.325 45.2853C181.035 45.4141 180.698 45.4785 180.314 45.4785C179.809 45.4785 179.392 45.369 179.061 45.1501C178.731 44.9311 178.521 44.6113 178.433 44.1907L179.155 44.0104C179.223 44.2765 179.353 44.4761 179.544 44.6092C179.737 44.7423 179.99 44.8088 180.301 44.8088C180.655 44.8088 180.936 44.7337 181.144 44.5834C181.355 44.431 181.46 44.2486 181.46 44.0361C181.46 43.8644 181.4 43.7206 181.279 43.6047C181.159 43.4867 180.975 43.3987 180.726 43.3407L179.902 43.1475C179.449 43.0402 179.116 42.8739 178.904 42.6485C178.693 42.421 178.588 42.1366 178.588 41.7954C178.588 41.5163 178.666 41.2695 178.823 41.0549C178.982 40.8402 179.198 40.6718 179.47 40.5494C179.745 40.4271 180.056 40.3659 180.404 40.3659C180.893 40.3659 181.277 40.4732 181.556 40.6879C181.838 40.9025 182.037 41.1858 182.155 41.5378Z" fill="#FEFEFE"/>
<rect y="4.91083" width="183.966" height="3.77753" rx="1.88876" fill="#FEFEFE"/>
<rect y="29.8425" width="183.966" height="3.77753" rx="1.88876" fill="#FEFEFE"/>
</svg>
