<svg width="76" height="144" viewBox="0 0 76 144" fill="none" xmlns="http://www.w3.org/2000/svg">
<path d="M38.0086 29.3638C39.596 29.3638 41.1183 28.7221 42.2407 27.5798C43.3632 26.4375 43.9938 24.8883 43.9938 23.2729C43.9938 21.6575 43.3632 20.1082 42.2407 18.966C41.1183 17.8237 39.596 17.182 38.0086 17.182C36.4212 17.182 34.8989 17.8237 33.7765 18.966C32.654 20.1082 32.0234 21.6575 32.0234 23.2729C32.0234 24.8883 32.654 26.4375 33.7765 27.5798C34.8989 28.7221 36.4212 29.3638 38.0086 29.3638Z" fill="#ffbb5c" stroke="#ffffff" stroke-width="9.13636" stroke-linecap="round" stroke-linejoin="round"/>
<path d="M61.949 5C61.949 5 70.9267 11.0909 70.9267 23.2727C70.9267 35.4545 61.949 41.5455 61.949 41.5455M14.0676 5C14.0676 5 5.08984 11.0909 5.08984 23.2727C5.08984 35.4545 14.0676 41.5455 14.0676 41.5455M8.08243 139L14.732 114.636M14.732 114.636L23.0454 84.1818M14.732 114.636H61.2846M67.9342 139L61.2846 114.636M61.2846 114.636L52.9712 84.1818M52.9712 84.1818L38.0083 29.3636L23.0454 84.1818M52.9712 84.1818H23.0454" stroke="#ffffff" stroke-width="9.13636" stroke-linecap="round" stroke-linejoin="round"/>
</svg>
