<svg width="125" height="101" viewBox="0 0 125 101" fill="none" xmlns="http://www.w3.org/2000/svg">
<path d="M99.5594 50.5135L87.1945 72.3456L102.836 92.3531L124.475 54.2256L99.5594 50.5135ZM31.7381 88.0748V71.0244C26.2976 68.5706 22.4645 63.0969 22.4645 56.6164C22.4645 53.0302 23.701 49.6956 25.7412 47.1789L13.5618 39.9435C7.3175 36.2314 5.15366 28.1152 8.80129 21.7606L17.333 6.66061C19.0726 3.60921 21.9267 1.38113 25.2735 0.4619C28.6202 -0.457333 32.1883 0.0067836 35.2003 1.75311L85.4635 31.4498C91.3368 34.7844 93.377 42.4602 89.9766 48.5002L80.703 64.8585C77.3026 70.8356 69.6982 72.9119 63.8249 69.4514L52.202 62.6564C50.6564 66.3685 47.7506 69.3885 44.103 71.0244V88.0748C44.103 94.9956 38.5388 100.658 31.7381 100.658H0.825943V88.0748H31.7381Z" fill="#645CBB"/>
</svg>
