<svg width="112" height="113" viewBox="0 0 112 113" fill="none" xmlns="http://www.w3.org/2000/svg">
<path d="M92.3385 0V23.4522L81.5645 34.4168L73.5749 26.2855L72.0313 27.8571L38.9683 61.5033L65.4881 88.491L53.1584 101.038L53.1589 113H57.5247V102.879L68.5753 91.6329L73.5749 96.7209L108.18 61.5036L94.1241 47.1992L109.882 31.1626V0H105.516V29.3224L91.0367 44.0573L84.6512 37.5587L96.7041 25.2929V0H92.3385ZM0.205078 2.59344V7.03638H43.8016L54.1406 17.558C53.5222 18.6365 53.1971 19.8631 53.1986 21.1117C53.1986 25.0162 56.3087 28.1816 60.1448 28.1816C63.981 28.1816 67.091 25.0162 67.091 21.112C67.091 17.208 63.981 14.0435 60.1448 14.0435C59.1769 14.0435 58.2552 14.2456 57.4179 14.6098L45.6104 2.59368H0.205078V2.59344ZM0.205078 15.7836V20.2273L30.8397 20.228L41.1787 30.7496C40.5601 31.8281 40.2347 33.0546 40.236 34.3034C40.236 38.2073 43.3461 41.3723 47.1822 41.3723C51.0184 41.3723 54.1287 38.2073 54.1287 34.3034C54.1287 30.3994 51.0186 27.2342 47.1825 27.2342C46.2143 27.2342 45.2929 27.4363 44.4556 27.8005L32.648 15.7844H0.205545L0.205078 15.7836ZM19.6864 28.9748L0.205312 28.9753V33.4189L17.8783 33.4182L28.2173 43.9413C27.5988 45.0196 27.2736 46.2462 27.275 47.4948C27.275 51.3987 30.3851 54.564 34.2213 54.564C38.0574 54.564 41.167 51.3987 41.167 47.4945C41.167 43.5906 38.0574 40.4251 34.2213 40.4251C33.2529 40.4251 32.3312 40.6272 31.4937 40.9917L19.6864 28.9748ZM73.5749 32.5697L102.006 61.5038L73.5749 90.4363L45.1434 61.5038L73.5749 32.5701V32.5697ZM73.2819 39.0813L51.1868 61.5668L73.3843 84.1572L76.4717 81.0155L57.3616 61.5671L76.3696 42.2228L73.2819 39.0813ZM0.205545 44.2068V56.3816L37.6163 94.4534V113H41.9828V86.7216L0.205545 44.2068ZM81.1599 46.2033L78.0732 49.345L90.1003 61.5851L78.0054 73.8937L81.0935 77.0354L96.2751 61.5851L81.1606 46.203L81.1599 46.2033ZM74.1674 54.0873C70.0906 54.0873 66.7866 57.4508 66.7866 61.5989C66.7866 65.7466 70.0908 69.1096 74.1669 69.1096C78.2437 69.1096 81.5479 65.7466 81.5479 61.5989C81.5479 57.4501 78.2437 54.087 74.1672 54.087L74.1674 54.0873ZM0.205078 65.6098V77.7846L22.3731 100.343V112.999H26.7391V92.6117L0.205545 65.6098H0.205078ZM100.052 83.0026C96.2162 83.0026 93.1062 86.1676 93.1062 90.0716C93.1062 93.9755 96.2162 97.1412 100.052 97.1412C100.986 97.1412 101.875 96.9524 102.688 96.6129L111.243 105.318V99.0352L106.009 93.7095C106.659 92.6113 107.001 91.3535 106.999 90.0718C106.999 86.1679 103.889 83.0029 100.052 83.0029V83.0026ZM0.205078 87.2076V99.383L7.51622 106.822L7.51575 113H11.8818L11.8832 99.092L0.205078 87.2076ZM87.0917 96.1938C83.2555 96.1938 80.1452 99.3588 80.1452 103.263C80.1452 107.167 83.2548 110.331 87.0914 110.331C87.9122 110.331 88.6993 110.186 89.4301 109.92L92.4567 112.999H98.6315L92.8889 107.155C93.6398 106.001 94.0394 104.647 94.0377 103.263C94.0377 99.3583 90.9276 96.1933 87.0914 96.1933L87.0917 96.1938Z" fill="#ffbb5c"/>
</svg>
