<svg width="109" height="110" viewBox="0 0 109 110" fill="none" xmlns="http://www.w3.org/2000/svg">
<g clip-path="url(#clip0_158_12)">
<g filter="url(#filter0_d_158_12)">
<path d="M80.3123 80.8851C81.4405 80.8851 82.355 79.9107 82.355 78.7087C82.355 77.5068 81.4405 76.5324 80.3123 76.5324C79.1841 76.5324 78.2695 77.5068 78.2695 78.7087C78.2695 79.9107 79.1841 80.8851 80.3123 80.8851Z" fill="#FEFEFE"/>
<path d="M74.6313 69.0376C77.715 69.0376 80.2148 66.3743 80.2148 63.089C80.2148 59.8036 77.715 57.1404 74.6313 57.1404C71.5477 57.1404 69.0479 59.8036 69.0479 63.089C69.0479 66.3743 71.5477 69.0376 74.6313 69.0376Z" fill="#FEFEFE"/>
<path d="M90.6469 68.5207C93.7306 68.5207 96.2304 65.8574 96.2304 62.5721C96.2304 59.2868 93.7306 56.6235 90.6469 56.6235C87.5633 56.6235 85.0635 59.2868 85.0635 62.5721C85.0635 65.8574 87.5633 68.5207 90.6469 68.5207Z" fill="#FEFEFE"/>
<path d="M14.6733 11.8972C17.757 11.8972 20.2568 9.23392 20.2568 5.9486C20.2568 2.66328 17.757 0 14.6733 0C11.5896 0 9.08984 2.66328 9.08984 5.9486C9.08984 9.23392 11.5896 11.8972 14.6733 11.8972Z" fill="#FEFEFE"/>
<path fill-rule="evenodd" clip-rule="evenodd" d="M14.8354 18.9437C8.94564 2.81636 -1.82549 65.9768 10.1621 89.189C20.0051 108.253 47.1173 100.544 40.2353 98.4564C-3.45792 85.2143 18.6766 29.4491 14.8354 18.9437Z" fill="#FEFEFE"/>
<path fill-rule="evenodd" clip-rule="evenodd" d="M104.965 63.5601C104.68 84.829 88.5971 101.999 68.8277 101.999C48.8808 101.999 32.6865 84.5193 32.6865 62.9885C32.6865 41.458 48.8808 23.9779 68.8277 23.9779C75.6416 23.9779 82.0175 26.0177 87.4598 29.562C83.36 27.4999 78.7648 26.3441 73.9136 26.3441C56.6188 26.3441 42.5775 41.0344 42.5775 59.1284C42.5775 77.2226 56.6188 91.9129 73.9136 91.9129C89.7712 91.9129 102.893 79.5626 104.965 63.5601Z" fill="#FEFEFE"/>
</g>
</g>
<defs>
<filter id="filter0_d_158_12" x="0.736328" y="0" width="108.229" height="109.999" filterUnits="userSpaceOnUse" color-interpolation-filters="sRGB">
<feFlood flood-opacity="0" result="BackgroundImageFix"/>
<feColorMatrix in="SourceAlpha" type="matrix" values="0 0 0 0 0 0 0 0 0 0 0 0 0 0 0 0 0 0 127 0" result="hardAlpha"/>
<feOffset dy="4"/>
<feGaussianBlur stdDeviation="2"/>
<feComposite in2="hardAlpha" operator="out"/>
<feColorMatrix type="matrix" values="0 0 0 0 0 0 0 0 0 0 0 0 0 0 0 0 0 0 0.25 0"/>
<feBlend mode="normal" in2="BackgroundImageFix" result="effect1_dropShadow_158_12"/>
<feBlend mode="normal" in="SourceGraphic" in2="effect1_dropShadow_158_12" result="shape"/>
</filter>
<clipPath id="clip0_158_12">
<rect width="109" height="110" fill="white"/>
</clipPath>
</defs>
</svg>
