<?xml version="1.0" encoding="UTF-8" standalone="no"?>
<!DOCTYPE svg PUBLIC "-//W3C//DTD SVG 1.1//EN" "http://www.w3.org/Graphics/SVG/1.1/DTD/svg11.dtd">
<svg width="100%" height="100%" viewBox="0 0 714 684" version="1.1" xmlns="http://www.w3.org/2000/svg" xmlns:xlink="http://www.w3.org/1999/xlink" xml:space="preserve" xmlns:serif="http://www.serif.com/" style="fill-rule:evenodd;clip-rule:evenodd;stroke-linecap:round;stroke-linejoin:round;stroke-miterlimit:1.5;">
    <g id="i" transform="matrix(9.49204,0,0,9.49204,-11221.4,-7182.68)">
        <path d="M1195.69,774.958C1192.01,765.5 1185.28,802.541 1192.77,816.154C1198.92,827.334 1215.86,822.813 1211.56,821.589C1184.26,813.823 1198.09,781.119 1195.69,774.958Z" style="fill:rgb(67,62,124);stroke:rgb(67,62,124);stroke-width:0.4px;"/>
    </g>
    <g transform="matrix(1,0,0,1,1.75958,11.8891)">
        <circle cx="425.263" cy="473.799" r="33.114" style="fill:rgb(67,62,124);stroke:rgb(67,62,124);stroke-width:0.4px;"/>
    </g>
    <g transform="matrix(1,0,0,1,107.465,11.8891)">
        <circle cx="425.263" cy="473.799" r="33.114" style="fill:rgb(67,62,124);stroke:rgb(67,62,124);stroke-width:0.4px;"/>
    </g>
    <g transform="matrix(1,0,0,1,-298.079,-372.885)">
        <circle cx="425.263" cy="473.799" r="33.114" style="fill:rgb(67,62,124);stroke:rgb(67,62,124);stroke-width:0.4px;"/>
    </g>
    <g transform="matrix(0.365857,0,0,0.365857,324.29,369.203)">
        <circle cx="425.263" cy="473.799" r="33.114" style="fill:rgb(67,62,124);stroke:rgb(67,62,124);stroke-width:1.09px;"/>
    </g>
    <g transform="matrix(1,0,0,1,167.88,105.03)">
        <path d="M494.788,316.588C493.1,434.985 397.714,530.567 280.467,530.567C162.167,530.567 66.123,433.261 66.123,313.406C66.123,193.552 162.167,96.246 280.467,96.246C320.878,96.246 358.692,107.601 390.969,127.331C366.654,115.852 339.401,109.418 310.63,109.418C208.059,109.418 124.784,191.194 124.784,291.918C124.784,392.643 208.059,474.419 310.63,474.419C404.677,474.419 482.502,405.669 494.788,316.588Z" style="fill:rgb(67,62,124);stroke:rgb(67,62,124);stroke-width:0.4px;"/>
    </g>
</svg>
