<svg width="211" height="58" viewBox="0 0 211 58" fill="none" xmlns="http://www.w3.org/2000/svg">
<path d="M4.26181 12.4028V30H2.13091V12.4028H4.26181ZM10.2872 22.0607V30H8.25941V16.8021H10.2185V18.8643H10.3903C10.6996 18.1941 11.1694 17.6556 11.7995 17.2489C12.4296 16.8365 13.243 16.6303 14.2397 16.6303C15.1333 16.6303 15.9152 16.8136 16.5854 17.1802C17.2556 17.5411 17.7769 18.091 18.1492 18.8299C18.5216 19.5631 18.7077 20.4911 18.7077 21.6138V30H16.6799V21.7513C16.6799 20.7145 16.4107 19.9068 15.8723 19.3283C15.3338 18.744 14.5949 18.4519 13.6554 18.4519C13.0081 18.4519 12.4296 18.5922 11.9198 18.8729C11.4157 19.1536 11.0176 19.5631 10.7254 20.1016C10.4333 20.64 10.2872 21.2931 10.2872 22.0607ZM24.441 22.0607V30H22.4132V16.8021H24.3723V18.8643H24.5441C24.8534 18.1941 25.3231 17.6556 25.9532 17.2489C26.5834 16.8365 27.3968 16.6303 28.3935 16.6303C29.2871 16.6303 30.069 16.8136 30.7392 17.1802C31.4094 17.5411 31.9307 18.091 32.303 18.8299C32.6753 19.5631 32.8615 20.4911 32.8615 21.6138V30H30.8337V21.7513C30.8337 20.7145 30.5645 19.9068 30.026 19.3283C29.4876 18.744 28.7486 18.4519 27.8092 18.4519C27.1619 18.4519 26.5834 18.5922 26.0735 18.8729C25.5695 19.1536 25.1713 19.5631 24.8792 20.1016C24.5871 20.64 24.441 21.2931 24.441 22.0607ZM41.9286 30.275C40.7371 30.275 39.6917 29.9914 38.7924 29.4243C37.8988 28.8572 37.1999 28.0639 36.6959 27.0442C36.1975 26.0246 35.9483 24.8331 35.9483 23.4698C35.9483 22.095 36.1975 20.895 36.6959 19.8696C37.1999 18.8442 37.8988 18.048 38.7924 17.4809C39.6917 16.9138 40.7371 16.6303 41.9286 16.6303C43.1201 16.6303 44.1626 16.9138 45.0562 17.4809C45.9556 18.048 46.6544 18.8442 47.1528 19.8696C47.6568 20.895 47.9089 22.095 47.9089 23.4698C47.9089 24.8331 47.6568 26.0246 47.1528 27.0442C46.6544 28.0639 45.9556 28.8572 45.0562 29.4243C44.1626 29.9914 43.1201 30.275 41.9286 30.275ZM41.9286 28.4534C42.8337 28.4534 43.5783 28.2214 44.1626 27.7574C44.7469 27.2934 45.1794 26.6833 45.4601 25.9272C45.7407 25.1711 45.8811 24.352 45.8811 23.4698C45.8811 22.5877 45.7407 21.7656 45.4601 21.0038C45.1794 20.2419 44.7469 19.6261 44.1626 19.1564C43.5783 18.6867 42.8337 18.4519 41.9286 18.4519C41.0235 18.4519 40.2789 18.6867 39.6946 19.1564C39.1103 19.6261 38.6778 20.2419 38.3971 21.0038C38.1165 21.7656 37.9761 22.5877 37.9761 23.4698C37.9761 24.352 38.1165 25.1711 38.3971 25.9272C38.6778 26.6833 39.1103 27.2934 39.6946 27.7574C40.2789 28.2214 41.0235 28.4534 41.9286 28.4534ZM61.3237 16.8021L56.4433 30H54.3811L49.5006 16.8021H51.7003L55.3434 27.3192H55.4809L59.1241 16.8021H61.3237ZM67.4823 30.3093C66.646 30.3093 65.887 30.1518 65.2053 29.8367C64.5237 29.516 63.9823 29.0548 63.5814 28.4534C63.1804 27.8462 62.9799 27.113 62.9799 26.2537C62.9799 25.4976 63.1288 24.8847 63.4267 24.415C63.7246 23.9395 64.1227 23.5672 64.621 23.298C65.1194 23.0287 65.6693 22.8282 66.2708 22.6965C66.878 22.559 67.488 22.4502 68.101 22.37C68.9029 22.2669 69.5531 22.1895 70.0514 22.138C70.5555 22.0807 70.9221 21.9862 71.1512 21.8544C71.3861 21.7227 71.5035 21.4936 71.5035 21.167V21.0983C71.5035 20.2505 71.2715 19.5918 70.8076 19.1221C70.3493 18.6523 69.6533 18.4175 68.7196 18.4175C67.7515 18.4175 66.9925 18.6294 66.4426 19.0533C65.8927 19.4772 65.5061 19.9297 65.2827 20.4109L63.358 19.7235C63.7017 18.9216 64.1599 18.2972 64.7327 17.8504C65.3113 17.3979 65.9414 17.0828 66.6231 16.9052C67.3105 16.7219 67.9864 16.6303 68.6509 16.6303C69.0748 16.6303 69.5617 16.6818 70.1116 16.7849C70.6672 16.8823 71.2028 17.0857 71.7183 17.395C72.2396 17.7043 72.6721 18.1712 73.0158 18.7956C73.3595 19.4199 73.5313 20.2563 73.5313 21.3045V30H71.5035V28.2128H71.4004C71.2629 28.4992 71.0338 28.8057 70.713 29.1322C70.3923 29.4587 69.9655 29.7365 69.4328 29.9656C68.9 30.1948 68.2499 30.3093 67.4823 30.3093ZM67.7916 28.4877C68.5936 28.4877 69.2695 28.3302 69.8194 28.0152C70.3751 27.7001 70.7932 27.2934 71.0739 26.795C71.3603 26.2967 71.5035 25.7726 71.5035 25.2226V23.3667C71.4176 23.4698 71.2286 23.5643 70.9364 23.6502C70.65 23.7304 70.3178 23.802 69.9397 23.865C69.5674 23.9223 69.2036 23.9739 68.8485 24.0197C68.4991 24.0598 68.2155 24.0942 67.9978 24.1228C67.4708 24.1916 66.9782 24.3033 66.52 24.4579C66.0674 24.6069 65.7008 24.8331 65.4201 25.1367C65.1452 25.4346 65.0077 25.8413 65.0077 26.3568C65.0077 27.0614 65.2683 27.5941 65.7896 27.955C66.3166 28.3102 66.9839 28.4877 67.7916 28.4877ZM82.9722 16.8021V18.5206H76.1327V16.8021H82.9722ZM78.1261 13.6401H80.1539V26.2194C80.1539 26.7922 80.237 27.2218 80.4031 27.5082C80.5749 27.7889 80.7926 27.9779 81.0561 28.0753C81.3253 28.167 81.6089 28.2128 81.9067 28.2128C82.1301 28.2128 82.3134 28.2013 82.4567 28.1784C82.5999 28.1498 82.7144 28.1269 82.8003 28.1097L83.2128 29.9313C83.0753 29.9828 82.8834 30.0344 82.6371 30.0859C82.3908 30.1432 82.0786 30.1718 81.7005 30.1718C81.1277 30.1718 80.5663 30.0487 80.0164 29.8024C79.4722 29.5561 79.0197 29.1809 78.6588 28.6768C78.3037 28.1727 78.1261 27.5369 78.1261 26.7693V13.6401ZM86.0225 30V16.8021H88.0503V30H86.0225ZM87.0536 14.6025C86.6583 14.6025 86.3175 14.4679 86.0311 14.1986C85.7504 13.9294 85.6101 13.6058 85.6101 13.2277C85.6101 12.8496 85.7504 12.526 86.0311 12.2568C86.3175 11.9875 86.6583 11.8529 87.0536 11.8529C87.4488 11.8529 87.7868 11.9875 88.0675 12.2568C88.3539 12.526 88.4971 12.8496 88.4971 13.2277C88.4971 13.6058 88.3539 13.9294 88.0675 14.1986C87.7868 14.4679 87.4488 14.6025 87.0536 14.6025ZM102.556 16.8021L97.6759 30H95.6137L90.7332 16.8021H92.9329L96.5761 27.3192H96.7135L100.357 16.8021H102.556ZM110.294 30.275C109.022 30.275 107.925 29.9943 107.003 29.4329C106.086 28.8658 105.379 28.0753 104.881 27.0614C104.388 26.0418 104.142 24.856 104.142 23.5042C104.142 22.1523 104.388 20.9608 104.881 19.9297C105.379 18.8929 106.072 18.0853 106.96 17.5067C107.854 16.9224 108.896 16.6303 110.088 16.6303C110.775 16.6303 111.454 16.7448 112.124 16.974C112.794 17.2031 113.404 17.5754 113.954 18.091C114.504 18.6008 114.942 19.2767 115.269 20.1188C115.595 20.9608 115.759 21.9976 115.759 23.2292V24.0885H105.585V22.3356H113.696C113.696 21.5909 113.547 20.9265 113.25 20.3422C112.957 19.7579 112.539 19.2968 111.995 18.9588C111.457 18.6208 110.821 18.4519 110.088 18.4519C109.28 18.4519 108.581 18.6523 107.991 19.0533C107.407 19.4486 106.957 19.9641 106.642 20.5999C106.327 21.2358 106.169 21.9174 106.169 22.6449V23.8135C106.169 24.8102 106.341 25.6551 106.685 26.3482C107.034 27.0356 107.518 27.5598 108.137 27.9206C108.756 28.2758 109.475 28.4534 110.294 28.4534C110.826 28.4534 111.308 28.3789 111.737 28.23C112.173 28.0753 112.548 27.8462 112.863 27.5426C113.178 27.2333 113.421 26.8495 113.593 26.3912L115.552 26.9411C115.346 27.6056 115 28.1899 114.513 28.694C114.026 29.1923 113.424 29.5818 112.708 29.8625C111.992 30.1375 111.187 30.275 110.294 30.275ZM140.084 17.9019H137.953C137.827 17.289 137.606 16.7506 137.291 16.2866C136.982 15.8226 136.604 15.4331 136.157 15.118C135.716 14.7972 135.226 14.5567 134.688 14.3963C134.149 14.2359 133.588 14.1557 133.003 14.1557C131.938 14.1557 130.973 14.4249 130.108 14.9634C129.249 15.5018 128.564 16.2952 128.054 17.3434C127.55 18.3917 127.298 19.6777 127.298 21.2014C127.298 22.7251 127.55 24.0111 128.054 25.0594C128.564 26.1077 129.249 26.901 130.108 27.4395C130.973 27.9779 131.938 28.2472 133.003 28.2472C133.588 28.2472 134.149 28.167 134.688 28.0066C135.226 27.8462 135.716 27.6085 136.157 27.2934C136.604 26.9726 136.982 26.5802 137.291 26.1162C137.606 25.6465 137.827 25.1081 137.953 24.5009H140.084C139.923 25.4002 139.631 26.205 139.207 26.9153C138.783 27.6256 138.256 28.23 137.626 28.7283C136.996 29.221 136.289 29.5962 135.504 29.8539C134.725 30.1117 133.891 30.2406 133.003 30.2406C131.503 30.2406 130.168 29.874 128.999 29.1408C127.831 28.4075 126.911 27.365 126.241 26.0131C125.571 24.6613 125.236 23.0574 125.236 21.2014C125.236 19.3455 125.571 17.7416 126.241 16.3897C126.911 15.0378 127.831 13.9953 128.999 13.2621C130.168 12.5289 131.503 12.1622 133.003 12.1622C133.891 12.1622 134.725 12.2911 135.504 12.5489C136.289 12.8067 136.996 13.1847 137.626 13.6831C138.256 14.1757 138.783 14.7772 139.207 15.4875C139.631 16.1921 139.923 16.9969 140.084 17.9019ZM143.252 30V16.8021H145.28V30H143.252ZM144.283 14.6025C143.888 14.6025 143.547 14.4679 143.261 14.1986C142.98 13.9294 142.84 13.6058 142.84 13.2277C142.84 12.8496 142.98 12.526 143.261 12.2568C143.547 11.9875 143.888 11.8529 144.283 11.8529C144.678 11.8529 145.016 11.9875 145.297 12.2568C145.583 12.526 145.727 12.8496 145.727 13.2277C145.727 13.6058 145.583 13.9294 145.297 14.1986C145.016 14.4679 144.678 14.6025 144.283 14.6025ZM148.994 30V16.8021H150.953V18.7956H151.09C151.331 18.1425 151.766 17.6127 152.396 17.206C153.026 16.7993 153.737 16.5959 154.527 16.5959C154.676 16.5959 154.862 16.5988 155.086 16.6045C155.309 16.6102 155.478 16.6188 155.593 16.6303V18.6924C155.524 18.6753 155.366 18.6495 155.12 18.6151C154.88 18.575 154.625 18.555 154.355 18.555C153.714 18.555 153.141 18.6896 152.637 18.9588C152.139 19.2223 151.743 19.5889 151.451 20.0586C151.165 20.5226 151.022 21.0525 151.022 21.6482V30H148.994ZM162.956 30.275C161.719 30.275 160.654 29.9828 159.76 29.3985C158.866 28.8143 158.179 28.0094 157.698 26.9841C157.217 25.9587 156.976 24.7873 156.976 23.4698C156.976 22.1294 157.222 20.9465 157.715 19.9212C158.213 18.8901 158.907 18.0853 159.794 17.5067C160.688 16.9224 161.731 16.6303 162.922 16.6303C163.85 16.6303 164.686 16.8021 165.431 17.1458C166.176 17.4895 166.786 17.9707 167.261 18.5893C167.737 19.208 168.032 19.9297 168.146 20.7546H166.118C165.964 20.1531 165.62 19.6204 165.087 19.1564C164.56 18.6867 163.85 18.4519 162.956 18.4519C162.166 18.4519 161.473 18.6581 160.877 19.0705C160.287 19.4772 159.826 20.0529 159.494 20.7976C159.167 21.5365 159.004 22.4043 159.004 23.4011C159.004 24.4207 159.164 25.3086 159.485 26.0647C159.812 26.8208 160.27 27.408 160.86 27.8261C161.456 28.2443 162.154 28.4534 162.956 28.4534C163.483 28.4534 163.962 28.3617 164.391 28.1784C164.821 27.9951 165.185 27.7316 165.483 27.3879C165.78 27.0442 165.992 26.6318 166.118 26.1506H168.146C168.032 26.9297 167.748 27.6314 167.296 28.2557C166.849 28.8744 166.256 29.367 165.517 29.7336C164.784 30.0945 163.93 30.275 162.956 30.275ZM179.428 24.604V16.8021H181.456V30H179.428V27.766H179.29C178.981 28.4362 178.5 29.0061 177.847 29.4759C177.194 29.9399 176.369 30.1718 175.372 30.1718C174.547 30.1718 173.814 29.9914 173.173 29.6305C172.531 29.2639 172.027 28.714 171.66 27.9808C171.294 27.2418 171.111 26.311 171.111 25.1883V16.8021H173.138V25.0508C173.138 26.0131 173.408 26.7807 173.946 27.3536C174.49 27.9264 175.183 28.2128 176.025 28.2128C176.529 28.2128 177.042 28.0839 177.563 27.8261C178.09 27.5684 178.531 27.1731 178.887 26.6404C179.248 26.1077 179.428 25.4289 179.428 24.604ZM185.17 30V16.8021H187.198V30H185.17ZM186.201 14.6025C185.806 14.6025 185.465 14.4679 185.178 14.1986C184.898 13.9294 184.757 13.6058 184.757 13.2277C184.757 12.8496 184.898 12.526 185.178 12.2568C185.465 11.9875 185.806 11.8529 186.201 11.8529C186.596 11.8529 186.934 11.9875 187.215 12.2568C187.501 12.526 187.644 12.8496 187.644 13.2277C187.644 13.6058 187.501 13.9294 187.215 14.1986C186.934 14.4679 186.596 14.6025 186.201 14.6025ZM196.651 16.8021V18.5206H189.812V16.8021H196.651ZM191.805 13.6401H193.833V26.2194C193.833 26.7922 193.916 27.2218 194.082 27.5082C194.254 27.7889 194.472 27.9779 194.735 28.0753C195.004 28.167 195.288 28.2128 195.586 28.2128C195.809 28.2128 195.993 28.2013 196.136 28.1784C196.279 28.1498 196.394 28.1269 196.48 28.1097L196.892 29.9313C196.754 29.9828 196.563 30.0344 196.316 30.0859C196.07 30.1432 195.758 30.1718 195.38 30.1718C194.807 30.1718 194.245 30.0487 193.696 29.8024C193.151 29.5561 192.699 29.1809 192.338 28.6768C191.983 28.1727 191.805 27.5369 191.805 26.7693V13.6401ZM208.814 19.7579L206.992 20.2734C206.878 19.9698 206.709 19.6748 206.485 19.3884C206.268 19.0963 205.97 18.8557 205.592 18.6667C205.214 18.4776 204.73 18.3831 204.14 18.3831C203.332 18.3831 202.659 18.5693 202.12 18.9416C201.588 19.3082 201.321 19.7751 201.321 20.3422C201.321 20.8463 201.505 21.2444 201.871 21.5365C202.238 21.8287 202.811 22.0721 203.59 22.2669L205.549 22.748C206.729 23.0345 207.608 23.4727 208.187 24.0627C208.765 24.647 209.054 25.4002 209.054 26.3225C209.054 27.0786 208.837 27.7545 208.401 28.3503C207.972 28.946 207.37 29.4157 206.597 29.7594C205.824 30.1031 204.924 30.275 203.899 30.275C202.553 30.275 201.439 29.9828 200.557 29.3985C199.674 28.8143 199.116 27.9607 198.881 26.838L200.806 26.3568C200.989 27.0671 201.336 27.5999 201.845 27.955C202.361 28.3102 203.034 28.4877 203.865 28.4877C204.81 28.4877 205.56 28.2873 206.116 27.8863C206.677 27.4796 206.958 26.9927 206.958 26.4256C206.958 25.9673 206.798 25.5835 206.477 25.2742C206.156 24.9591 205.663 24.7243 204.999 24.5696L202.799 24.0541C201.591 23.7677 200.703 23.3237 200.136 22.7223C199.574 22.1151 199.294 21.3561 199.294 20.4453C199.294 19.7006 199.503 19.0419 199.921 18.469C200.345 17.8962 200.92 17.4466 201.648 17.12C202.381 16.7935 203.212 16.6303 204.14 16.6303C205.446 16.6303 206.471 16.9167 207.216 17.4895C207.966 18.0623 208.499 18.8185 208.814 19.7579Z" fill="#FEFEFE"/>
<path d="M2.45987 52.4515C2.10145 52.4515 1.77616 52.384 1.48402 52.249C1.19188 52.1115 0.95989 51.9139 0.788043 51.6561C0.616195 51.3959 0.530272 51.0817 0.530272 50.7134C0.530272 50.3894 0.594101 50.1267 0.721759 49.9254C0.849417 49.7216 1.02004 49.562 1.23362 49.4467C1.4472 49.3313 1.68288 49.2454 1.94065 49.1889C2.20087 49.13 2.46233 49.0833 2.72501 49.049C3.0687 49.0048 3.34734 48.9716 3.56092 48.9495C3.77696 48.925 3.93408 48.8845 4.03227 48.828C4.13293 48.7716 4.18325 48.6734 4.18325 48.5334V48.504C4.18325 48.1406 4.08383 47.8583 3.88498 47.657C3.68858 47.4557 3.3903 47.355 2.99014 47.355C2.57525 47.355 2.24997 47.4459 2.0143 47.6275C1.77862 47.8092 1.61291 48.0031 1.51717 48.2094L0.692299 47.9148C0.839597 47.5711 1.03599 47.3035 1.28149 47.112C1.52944 46.9181 1.79949 46.783 2.09163 46.7069C2.38622 46.6284 2.67591 46.5891 2.96068 46.5891C3.14235 46.5891 3.35102 46.6112 3.5867 46.6554C3.82483 46.6971 4.05437 46.7843 4.27532 46.9168C4.49872 47.0494 4.68407 47.2495 4.83136 47.5171C4.97866 47.7847 5.05231 48.1431 5.05231 48.5923V52.319H4.18325V51.553H4.13907C4.08015 51.6758 3.98195 51.8071 3.84447 51.947C3.70699 52.087 3.5241 52.206 3.29579 52.3042C3.06747 52.4024 2.78884 52.4515 2.45987 52.4515ZM2.59244 51.6709C2.93613 51.6709 3.22582 51.6033 3.4615 51.4683C3.69963 51.3333 3.87884 51.159 3.99913 50.9454C4.12188 50.7318 4.18325 50.5072 4.18325 50.2715V49.4761C4.14643 49.5203 4.06542 49.5608 3.94021 49.5976C3.81746 49.632 3.67508 49.6627 3.51305 49.6897C3.35348 49.7143 3.19759 49.7364 3.04538 49.756C2.89563 49.7732 2.77411 49.7879 2.68082 49.8002C2.45496 49.8296 2.24383 49.8775 2.04744 49.9438C1.8535 50.0076 1.69638 50.1046 1.57609 50.2347C1.45825 50.3624 1.39933 50.5367 1.39933 50.7576C1.39933 51.0596 1.51103 51.2879 1.73443 51.4425C1.96029 51.5948 2.24629 51.6709 2.59244 51.6709ZM8.77434 52.4368C8.30299 52.4368 7.88687 52.3177 7.52599 52.0796C7.16511 51.839 6.88279 51.5002 6.67903 51.0633C6.47527 50.6238 6.37339 50.1046 6.37339 49.5056C6.37339 48.9115 6.47527 48.3959 6.67903 47.959C6.88279 47.522 7.16634 47.1844 7.52967 46.9463C7.89301 46.7082 8.31281 46.5891 8.78907 46.5891C9.15731 46.5891 9.44823 46.6505 9.66181 46.7732C9.87784 46.8935 10.0423 47.031 10.1553 47.1856C10.2706 47.3379 10.3602 47.4631 10.4241 47.5613H10.4977V44.7773H11.3668V52.319H10.5272V51.4499H10.4241C10.3602 51.553 10.2694 51.6831 10.1516 51.8403C10.0337 51.9949 9.86557 52.1336 9.64708 52.2564C9.42859 52.3767 9.13767 52.4368 8.77434 52.4368ZM8.89218 51.6561C9.24078 51.6561 9.53538 51.5653 9.77596 51.3836C10.0165 51.1995 10.1994 50.9454 10.3246 50.6214C10.4498 50.2949 10.5125 49.918 10.5125 49.4909C10.5125 49.0686 10.4511 48.6991 10.3283 48.3824C10.2056 48.0633 10.0239 47.8153 9.78333 47.6386C9.54274 47.4594 9.24569 47.3698 8.89218 47.3698C8.52393 47.3698 8.21706 47.4643 7.97157 47.6533C7.72853 47.8399 7.54563 48.094 7.42288 48.4156C7.30259 48.7347 7.24244 49.0932 7.24244 49.4909C7.24244 49.8935 7.30382 50.2593 7.42657 50.5882C7.55177 50.9147 7.73589 51.175 7.97893 51.3689C8.22443 51.5604 8.52884 51.6561 8.89218 51.6561ZM17.7043 46.6627L15.6126 52.319H14.7288L12.6372 46.6627H13.5799L15.1413 51.17H15.2002L16.7616 46.6627H17.7043ZM20.3437 52.4515C19.9852 52.4515 19.6599 52.384 19.3678 52.249C19.0757 52.1115 18.8437 51.9139 18.6718 51.6561C18.5 51.3959 18.4141 51.0817 18.4141 50.7134C18.4141 50.3894 18.4779 50.1267 18.6055 49.9254C18.7332 49.7216 18.9038 49.562 19.1174 49.4467C19.331 49.3313 19.5667 49.2454 19.8244 49.1889C20.0847 49.13 20.3461 49.0833 20.6088 49.049C20.9525 49.0048 21.2311 48.9716 21.4447 48.9495C21.6607 48.925 21.8179 48.8845 21.9161 48.828C22.0167 48.7716 22.067 48.6734 22.067 48.5334V48.504C22.067 48.1406 21.9676 47.8583 21.7688 47.657C21.5724 47.4557 21.2741 47.355 20.8739 47.355C20.459 47.355 20.1338 47.4459 19.8981 47.6275C19.6624 47.8092 19.4967 48.0031 19.4009 48.2094L18.5761 47.9148C18.7234 47.5711 18.9198 47.3035 19.1653 47.112C19.4132 46.9181 19.6833 46.783 19.9754 46.7069C20.27 46.6284 20.5597 46.5891 20.8445 46.5891C21.0261 46.5891 21.2348 46.6112 21.4705 46.6554C21.7086 46.6971 21.9381 46.7843 22.1591 46.9168C22.3825 47.0494 22.5678 47.2495 22.7151 47.5171C22.8624 47.7847 22.9361 48.1431 22.9361 48.5923V52.319H22.067V51.553H22.0228C21.9639 51.6758 21.8657 51.8071 21.7282 51.947C21.5908 52.087 21.4079 52.206 21.1796 52.3042C20.9513 52.4024 20.6726 52.4515 20.3437 52.4515ZM20.4762 51.6709C20.8199 51.6709 21.1096 51.6033 21.3453 51.4683C21.5834 51.3333 21.7626 51.159 21.8829 50.9454C22.0057 50.7318 22.067 50.5072 22.067 50.2715V49.4761C22.0302 49.5203 21.9492 49.5608 21.824 49.5976C21.7012 49.632 21.5589 49.6627 21.3968 49.6897C21.2373 49.7143 21.0814 49.7364 20.9292 49.756C20.7794 49.7732 20.6579 49.7879 20.5646 49.8002C20.3387 49.8296 20.1276 49.8775 19.9312 49.9438C19.7373 50.0076 19.5802 50.1046 19.4599 50.2347C19.342 50.3624 19.2831 50.5367 19.2831 50.7576C19.2831 51.0596 19.3948 51.2879 19.6182 51.4425C19.8441 51.5948 20.1301 51.6709 20.4762 51.6709ZM25.3914 48.9164V52.319H24.5223V46.6627H25.3619V47.5465H25.4355C25.5681 47.2593 25.7694 47.0285 26.0395 46.8542C26.3095 46.6775 26.6581 46.5891 27.0853 46.5891C27.4683 46.5891 27.8034 46.6676 28.0906 46.8248C28.3778 46.9794 28.6012 47.2151 28.7608 47.5318C28.9204 47.846 29.0002 48.2437 29.0002 48.7249V52.319H28.1311V48.7838C28.1311 48.3395 28.0157 47.9933 27.7849 47.7454C27.5542 47.495 27.2375 47.3698 26.8349 47.3698C26.5575 47.3698 26.3095 47.4299 26.091 47.5502C25.875 47.6705 25.7044 47.846 25.5792 48.0768C25.454 48.3076 25.3914 48.5874 25.3914 48.9164ZM32.886 52.4368C32.3558 52.4368 31.8992 52.3116 31.5162 52.0612C31.1332 51.8108 30.8386 51.4659 30.6324 51.0264C30.4262 50.587 30.3231 50.085 30.3231 49.5203C30.3231 48.9459 30.4286 48.4389 30.6398 47.9995C30.8533 47.5576 31.1504 47.2127 31.5309 46.9647C31.9139 46.7143 32.3607 46.5891 32.8713 46.5891C33.269 46.5891 33.6274 46.6627 33.9466 46.81C34.2657 46.9573 34.5272 47.1636 34.731 47.4287C34.9347 47.6938 35.0611 48.0031 35.1102 48.3567H34.2412C34.1749 48.0989 34.0276 47.8706 33.7993 47.6717C33.5734 47.4704 33.269 47.3698 32.886 47.3698C32.5473 47.3698 32.2502 47.4581 31.9949 47.6349C31.742 47.8092 31.5444 48.0559 31.402 48.3751C31.2621 48.6918 31.1921 49.0637 31.1921 49.4909C31.1921 49.9278 31.2609 50.3084 31.3983 50.6324C31.5383 50.9565 31.7347 51.2081 31.9875 51.3873C32.2428 51.5665 32.5424 51.6561 32.886 51.6561C33.1119 51.6561 33.3169 51.6169 33.501 51.5383C33.6851 51.4597 33.841 51.3468 33.9687 51.1995C34.0963 51.0522 34.1872 50.8755 34.2412 50.6692H35.1102C35.0611 51.0031 34.9396 51.3038 34.7457 51.5714C34.5542 51.8366 34.3001 52.0477 33.9834 52.2048C33.6692 52.3595 33.3034 52.4368 32.886 52.4368ZM38.7522 52.4368C38.2072 52.4368 37.7371 52.3165 37.3418 52.0759C36.949 51.8329 36.6458 51.4941 36.4322 51.0596C36.2211 50.6226 36.1155 50.1144 36.1155 49.535C36.1155 48.9557 36.2211 48.445 36.4322 48.0031C36.6458 47.5588 36.9429 47.2127 37.3234 46.9647C37.7064 46.7143 38.1532 46.5891 38.6638 46.5891C38.9584 46.5891 39.2493 46.6382 39.5365 46.7364C39.8238 46.8346 40.0852 46.9942 40.3209 47.2151C40.5566 47.4336 40.7444 47.7233 40.8843 48.0842C41.0242 48.445 41.0942 48.8894 41.0942 49.4172V49.7854H36.7342V49.0342H40.2104C40.2104 48.7151 40.1466 48.4303 40.0189 48.1799C39.8937 47.9295 39.7145 47.7319 39.4813 47.587C39.2505 47.4422 38.978 47.3698 38.6638 47.3698C38.3176 47.3698 38.0181 47.4557 37.7653 47.6275C37.5149 47.7969 37.3222 48.0179 37.1871 48.2904C37.0521 48.5629 36.9846 48.855 36.9846 49.1668V49.6676C36.9846 50.0948 37.0583 50.4569 37.2056 50.7539C37.3553 51.0485 37.5627 51.2732 37.8279 51.4278C38.093 51.58 38.4011 51.6561 38.7522 51.6561C38.9805 51.6561 39.1867 51.6242 39.3708 51.5604C39.5574 51.4941 39.7182 51.3959 39.8532 51.2658C39.9883 51.1332 40.0926 50.9687 40.1662 50.7723L41.0058 51.008C40.9175 51.2928 40.7689 51.5432 40.5603 51.7592C40.3516 51.9728 40.0938 52.1398 39.7869 52.2601C39.4801 52.3779 39.1352 52.4368 38.7522 52.4368ZM44.552 52.4368C44.0807 52.4368 43.6646 52.3177 43.3037 52.0796C42.9428 51.839 42.6605 51.5002 42.4567 51.0633C42.253 50.6238 42.1511 50.1046 42.1511 49.5056C42.1511 48.9115 42.253 48.3959 42.4567 47.959C42.6605 47.522 42.944 47.1844 43.3074 46.9463C43.6707 46.7082 44.0905 46.5891 44.5668 46.5891C44.935 46.5891 45.2259 46.6505 45.4395 46.7732C45.6555 46.8935 45.82 47.031 45.9329 47.1856C46.0483 47.3379 46.1379 47.4631 46.2018 47.5613H46.2754V44.7773H47.1445V52.319H46.3049V51.4499H46.2018C46.1379 51.553 46.0471 51.6831 45.9293 51.8403C45.8114 51.9949 45.6433 52.1336 45.4248 52.2564C45.2063 52.3767 44.9154 52.4368 44.552 52.4368ZM44.6699 51.6561C45.0185 51.6561 45.3131 51.5653 45.5536 51.3836C45.7942 51.1995 45.9771 50.9454 46.1023 50.6214C46.2275 50.2949 46.2901 49.918 46.2901 49.4909C46.2901 49.0686 46.2288 48.6991 46.106 48.3824C45.9833 48.0633 45.8016 47.8153 45.561 47.6386C45.3204 47.4594 45.0234 47.3698 44.6699 47.3698C44.3016 47.3698 43.9947 47.4643 43.7493 47.6533C43.5062 47.8399 43.3233 48.094 43.2006 48.4156C43.0803 48.7347 43.0201 49.0932 43.0201 49.4909C43.0201 49.8935 43.0815 50.2593 43.2043 50.5882C43.3295 50.9147 43.5136 51.175 43.7566 51.3689C44.0021 51.5604 44.3065 51.6561 44.6699 51.6561ZM55.7798 47.9295L54.9991 48.1504C54.95 48.0203 54.8776 47.8939 54.7818 47.7712C54.6886 47.646 54.5609 47.5428 54.3989 47.4618C54.2368 47.3808 54.0294 47.3403 53.7765 47.3403C53.4304 47.3403 53.1419 47.4201 52.9112 47.5797C52.6829 47.7368 52.5687 47.9369 52.5687 48.1799C52.5687 48.3959 52.6473 48.5666 52.8044 48.6918C52.9615 48.817 53.207 48.9213 53.5409 49.0048L54.3805 49.211C54.8862 49.3337 55.263 49.5215 55.511 49.7744C55.7589 50.0248 55.8829 50.3476 55.8829 50.7429C55.8829 51.0669 55.7896 51.3566 55.603 51.6119C55.4189 51.8673 55.1611 52.0686 54.8297 52.2159C54.4983 52.3632 54.1129 52.4368 53.6734 52.4368C53.0965 52.4368 52.619 52.3116 52.241 52.0612C51.8629 51.8108 51.6235 51.445 51.5229 50.9638L52.3478 50.7576C52.4263 51.062 52.5748 51.2903 52.7933 51.4425C53.0143 51.5948 53.3027 51.6709 53.6587 51.6709C54.0638 51.6709 54.3854 51.5849 54.6235 51.4131C54.8641 51.2388 54.9844 51.0301 54.9844 50.7871C54.9844 50.5907 54.9156 50.4262 54.7782 50.2936C54.6407 50.1586 54.4296 50.058 54.1448 49.9917L53.2021 49.7707C52.6841 49.648 52.3036 49.4577 52.0605 49.1999C51.8199 48.9397 51.6996 48.6144 51.6996 48.2241C51.6996 47.9049 51.7893 47.6226 51.9685 47.3771C52.1501 47.1316 52.3969 46.9389 52.7086 46.799C53.0229 46.6591 53.3788 46.5891 53.7765 46.5891C54.3363 46.5891 54.7757 46.7118 55.0949 46.9573C55.4165 47.2028 55.6448 47.5269 55.7798 47.9295ZM60.7557 50.0064V46.6627H61.6247V52.319H60.7557V51.3615H60.6968C60.5642 51.6488 60.358 51.893 60.0781 52.0943C59.7983 52.2932 59.4447 52.3926 59.0176 52.3926C58.6641 52.3926 58.3498 52.3153 58.0749 52.1606C57.7999 52.0035 57.5839 51.7678 57.4268 51.4536C57.2696 51.1369 57.1911 50.738 57.1911 50.2568V46.6627H58.0601V50.1979C58.0601 50.6103 58.1755 50.9393 58.4063 51.1848C58.6395 51.4303 58.9366 51.553 59.2974 51.553C59.5135 51.553 59.7332 51.4978 59.9566 51.3873C60.1825 51.2768 60.3715 51.1074 60.5237 50.8791C60.6784 50.6508 60.7557 50.3599 60.7557 50.0064ZM63.2165 54.4401V46.6627H64.0561V47.5613H64.1592C64.223 47.4631 64.3114 47.3379 64.4243 47.1856C64.5397 47.031 64.7042 46.8935 64.9178 46.7732C65.1338 46.6505 65.4259 46.5891 65.7942 46.5891C66.2705 46.5891 66.6903 46.7082 67.0536 46.9463C67.4169 47.1844 67.7005 47.522 67.9042 47.959C68.108 48.3959 68.2099 48.9115 68.2099 49.5056C68.2099 50.1046 68.108 50.6238 67.9042 51.0633C67.7005 51.5002 67.4181 51.839 67.0573 52.0796C66.6964 52.3177 66.2803 52.4368 65.8089 52.4368C65.4456 52.4368 65.1547 52.3767 64.9362 52.2564C64.7177 52.1336 64.5495 51.9949 64.4317 51.8403C64.3138 51.6831 64.223 51.553 64.1592 51.4499H64.0855V54.4401H63.2165ZM64.0708 49.4909C64.0708 49.918 64.1334 50.2949 64.2586 50.6214C64.3838 50.9454 64.5667 51.1995 64.8073 51.3836C65.0479 51.5653 65.3425 51.6561 65.6911 51.6561C66.0544 51.6561 66.3576 51.5604 66.6006 51.3689C66.8461 51.175 67.0303 50.9147 67.153 50.5882C67.2782 50.2593 67.3408 49.8935 67.3408 49.4909C67.3408 49.0932 67.2794 48.7347 67.1567 48.4156C67.0364 48.094 66.8535 47.8399 66.608 47.6533C66.365 47.4643 66.0593 47.3698 65.6911 47.3698C65.3376 47.3698 65.0405 47.4594 64.7999 47.6386C64.5593 47.8153 64.3777 48.0633 64.2549 48.3824C64.1322 48.6991 64.0708 49.0686 64.0708 49.4909ZM69.5356 54.4401V46.6627H70.3751V47.5613H70.4783C70.5421 47.4631 70.6305 47.3379 70.7434 47.1856C70.8588 47.031 71.0233 46.8935 71.2368 46.7732C71.4529 46.6505 71.745 46.5891 72.1133 46.5891C72.5895 46.5891 73.0093 46.7082 73.3727 46.9463C73.736 47.1844 74.0195 47.522 74.2233 47.959C74.4271 48.3959 74.5289 48.9115 74.5289 49.5056C74.5289 50.1046 74.4271 50.6238 74.2233 51.0633C74.0195 51.5002 73.7372 51.839 73.3763 52.0796C73.0155 52.3177 72.5993 52.4368 72.128 52.4368C71.7647 52.4368 71.4737 52.3767 71.2553 52.2564C71.0368 52.1336 70.8686 51.9949 70.7508 51.8403C70.6329 51.6831 70.5421 51.553 70.4783 51.4499H70.4046V54.4401H69.5356ZM70.3899 49.4909C70.3899 49.918 70.4525 50.2949 70.5777 50.6214C70.7029 50.9454 70.8858 51.1995 71.1264 51.3836C71.367 51.5653 71.6615 51.6561 72.0102 51.6561C72.3735 51.6561 72.6767 51.5604 72.9197 51.3689C73.1652 51.175 73.3493 50.9147 73.4721 50.5882C73.5973 50.2593 73.6599 49.8935 73.6599 49.4909C73.6599 49.0932 73.5985 48.7347 73.4758 48.4156C73.3555 48.094 73.1726 47.8399 72.9271 47.6533C72.684 47.4643 72.3784 47.3698 72.0102 47.3698C71.6566 47.3698 71.3596 47.4594 71.119 47.6386C70.8784 47.8153 70.6967 48.0633 70.574 48.3824C70.4513 48.6991 70.3899 49.0686 70.3899 49.4909ZM78.1525 52.4368C77.6418 52.4368 77.1938 52.3153 76.8084 52.0722C76.4254 51.8292 76.1259 51.4892 75.9099 51.0522C75.6963 50.6152 75.5895 50.1046 75.5895 49.5203C75.5895 48.9311 75.6963 48.4168 75.9099 47.9774C76.1259 47.5379 76.4254 47.1967 76.8084 46.9537C77.1938 46.7106 77.6418 46.5891 78.1525 46.5891C78.6631 46.5891 79.1099 46.7106 79.4929 46.9537C79.8783 47.1967 80.1778 47.5379 80.3914 47.9774C80.6074 48.4168 80.7154 48.9311 80.7154 49.5203C80.7154 50.1046 80.6074 50.6152 80.3914 51.0522C80.1778 51.4892 79.8783 51.8292 79.4929 52.0722C79.1099 52.3153 78.6631 52.4368 78.1525 52.4368ZM78.1525 51.6561C78.5403 51.6561 78.8595 51.5567 79.1099 51.3579C79.3603 51.159 79.5457 50.8975 79.6659 50.5735C79.7862 50.2494 79.8464 49.8984 79.8464 49.5203C79.8464 49.1422 79.7862 48.79 79.6659 48.4635C79.5457 48.1369 79.3603 47.873 79.1099 47.6717C78.8595 47.4704 78.5403 47.3698 78.1525 47.3698C77.7646 47.3698 77.4454 47.4704 77.195 47.6717C76.9446 47.873 76.7593 48.1369 76.639 48.4635C76.5187 48.79 76.4585 49.1422 76.4585 49.5203C76.4585 49.8984 76.5187 50.2494 76.639 50.5735C76.7593 50.8975 76.9446 51.159 77.195 51.3579C77.4454 51.5567 77.7646 51.6561 78.1525 51.6561ZM82.042 52.319V46.6627H82.8816V47.5171H82.9406C83.0437 47.2372 83.2302 47.0101 83.5003 46.8358C83.7703 46.6615 84.0748 46.5744 84.4135 46.5744C84.4774 46.5744 84.5572 46.5756 84.6529 46.578C84.7486 46.5805 84.8211 46.5842 84.8702 46.5891V47.4729C84.8407 47.4655 84.7732 47.4545 84.6676 47.4397C84.5645 47.4225 84.4553 47.414 84.3399 47.414C84.0649 47.414 83.8194 47.4716 83.6034 47.587C83.3898 47.7 83.2204 47.8571 83.0952 48.0584C82.9725 48.2572 82.9111 48.4843 82.9111 48.7396V52.319H82.042ZM88.7146 46.6627V47.3992H85.7834V46.6627H88.7146ZM86.6377 45.3076H87.5068V50.6987C87.5068 50.9442 87.5424 51.1283 87.6136 51.2511C87.6872 51.3714 87.7805 51.4524 87.8934 51.4941C88.0088 51.5334 88.1303 51.553 88.258 51.553C88.3538 51.553 88.4323 51.5481 88.4937 51.5383C88.5551 51.526 88.6042 51.5162 88.641 51.5088L88.8177 52.2895C88.7588 52.3116 88.6766 52.3337 88.571 52.3558C88.4655 52.3803 88.3317 52.3926 88.1696 52.3926C87.9241 52.3926 87.6835 52.3398 87.4479 52.2343C87.2146 52.1287 87.0207 51.9679 86.866 51.7519C86.7138 51.5358 86.6377 51.2633 86.6377 50.9344V45.3076ZM95.4572 46.6627V47.3992H92.4081V46.6627H95.4572ZM93.3214 52.319V45.8821C93.3214 45.558 93.3975 45.288 93.5497 45.0719C93.7019 44.8559 93.8995 44.6939 94.1425 44.5858C94.3856 44.4778 94.6421 44.4238 94.9122 44.4238C95.1258 44.4238 95.3001 44.441 95.4351 44.4754C95.5701 44.5097 95.6708 44.5417 95.737 44.5711L95.4866 45.3223C95.4425 45.3076 95.3811 45.2892 95.3025 45.2671C95.2264 45.245 95.1258 45.234 95.0006 45.234C94.7133 45.234 94.5059 45.3064 94.3782 45.4512C94.253 45.5961 94.1904 45.8084 94.1904 46.0883V52.319H93.3214ZM98.7401 52.4368C98.2294 52.4368 97.7814 52.3153 97.396 52.0722C97.013 51.8292 96.7135 51.4892 96.4975 51.0522C96.2839 50.6152 96.1771 50.1046 96.1771 49.5203C96.1771 48.9311 96.2839 48.4168 96.4975 47.9774C96.7135 47.5379 97.013 47.1967 97.396 46.9537C97.7814 46.7106 98.2294 46.5891 98.7401 46.5891C99.2507 46.5891 99.6975 46.7106 100.08 46.9537C100.466 47.1967 100.765 47.5379 100.979 47.9774C101.195 48.4168 101.303 48.9311 101.303 49.5203C101.303 50.1046 101.195 50.6152 100.979 51.0522C100.765 51.4892 100.466 51.8292 100.08 52.0722C99.6975 52.3153 99.2507 52.4368 98.7401 52.4368ZM98.7401 51.6561C99.128 51.6561 99.4471 51.5567 99.6975 51.3579C99.9479 51.159 100.133 50.8975 100.254 50.5735C100.374 50.2494 100.434 49.8984 100.434 49.5203C100.434 49.1422 100.374 48.79 100.254 48.4635C100.133 48.1369 99.9479 47.873 99.6975 47.6717C99.4471 47.4704 99.128 47.3698 98.7401 47.3698C98.3522 47.3698 98.0331 47.4704 97.7826 47.6717C97.5322 47.873 97.3469 48.1369 97.2266 48.4635C97.1063 48.79 97.0462 49.1422 97.0462 49.5203C97.0462 49.8984 97.1063 50.2494 97.2266 50.5735C97.3469 50.8975 97.5322 51.159 97.7826 51.3579C98.0331 51.5567 98.3522 51.6561 98.7401 51.6561ZM102.63 52.319V46.6627H103.469V47.5171H103.528C103.631 47.2372 103.818 47.0101 104.088 46.8358C104.358 46.6615 104.662 46.5744 105.001 46.5744C105.065 46.5744 105.145 46.5756 105.241 46.578C105.336 46.5805 105.409 46.5842 105.458 46.5891V47.4729C105.428 47.4655 105.361 47.4545 105.255 47.4397C105.152 47.4225 105.043 47.414 104.928 47.414C104.653 47.414 104.407 47.4716 104.191 47.587C103.977 47.7 103.808 47.8571 103.683 48.0584C103.56 48.2572 103.499 48.4843 103.499 48.7396V52.319H102.63ZM111.864 46.6627V47.3992H108.933V46.6627H111.864ZM109.787 45.3076H110.656V50.6987C110.656 50.9442 110.692 51.1283 110.763 51.2511C110.837 51.3714 110.93 51.4524 111.043 51.4941C111.159 51.5334 111.28 51.553 111.408 51.553C111.503 51.553 111.582 51.5481 111.643 51.5383C111.705 51.526 111.754 51.5162 111.791 51.5088L111.967 52.2895C111.908 52.3116 111.826 52.3337 111.721 52.3558C111.615 52.3803 111.481 52.3926 111.319 52.3926C111.074 52.3926 110.833 52.3398 110.598 52.2343C110.364 52.1287 110.17 51.9679 110.016 51.7519C109.864 51.5358 109.787 51.2633 109.787 50.9344V45.3076ZM115.409 52.4368C114.898 52.4368 114.45 52.3153 114.065 52.0722C113.682 51.8292 113.382 51.4892 113.166 51.0522C112.952 50.6152 112.846 50.1046 112.846 49.5203C112.846 48.9311 112.952 48.4168 113.166 47.9774C113.382 47.5379 113.682 47.1967 114.065 46.9537C114.45 46.7106 114.898 46.5891 115.409 46.5891C115.919 46.5891 116.366 46.7106 116.749 46.9537C117.134 47.1967 117.434 47.5379 117.648 47.9774C117.864 48.4168 117.972 48.9311 117.972 49.5203C117.972 50.1046 117.864 50.6152 117.648 51.0522C117.434 51.4892 117.134 51.8292 116.749 52.0722C116.366 52.3153 115.919 52.4368 115.409 52.4368ZM115.409 51.6561C115.797 51.6561 116.116 51.5567 116.366 51.3579C116.616 51.159 116.802 50.8975 116.922 50.5735C117.042 50.2494 117.103 49.8984 117.103 49.5203C117.103 49.1422 117.042 48.79 116.922 48.4635C116.802 48.1369 116.616 47.873 116.366 47.6717C116.116 47.4704 115.797 47.3698 115.409 47.3698C115.021 47.3698 114.702 47.4704 114.451 47.6717C114.201 47.873 114.015 48.1369 113.895 48.4635C113.775 48.79 113.715 49.1422 113.715 49.5203C113.715 49.8984 113.775 50.2494 113.895 50.5735C114.015 50.8975 114.201 51.159 114.451 51.3579C114.702 51.5567 115.021 51.6561 115.409 51.6561ZM121.434 52.4368C120.963 52.4368 120.547 52.3177 120.186 52.0796C119.825 51.839 119.542 51.5002 119.339 51.0633C119.135 50.6238 119.033 50.1046 119.033 49.5056C119.033 48.9115 119.135 48.3959 119.339 47.959C119.542 47.522 119.826 47.1844 120.189 46.9463C120.553 46.7082 120.973 46.5891 121.449 46.5891C121.817 46.5891 122.108 46.6505 122.322 46.7732C122.538 46.8935 122.702 47.031 122.815 47.1856C122.93 47.3379 123.02 47.4631 123.084 47.5613H123.157V44.7773H124.026V52.319H123.187V51.4499H123.084C123.02 51.553 122.929 51.6831 122.811 51.8403C122.693 51.9949 122.525 52.1336 122.307 52.2564C122.088 52.3767 121.797 52.4368 121.434 52.4368ZM121.552 51.6561C121.9 51.6561 122.195 51.5653 122.436 51.3836C122.676 51.1995 122.859 50.9454 122.984 50.6214C123.11 50.2949 123.172 49.918 123.172 49.4909C123.172 49.0686 123.111 48.6991 122.988 48.3824C122.865 48.0633 122.684 47.8153 122.443 47.6386C122.202 47.4594 121.905 47.3698 121.552 47.3698C121.184 47.3698 120.877 47.4643 120.631 47.6533C120.388 47.8399 120.205 48.094 120.083 48.4156C119.962 48.7347 119.902 49.0932 119.902 49.4909C119.902 49.8935 119.964 50.2593 120.086 50.5882C120.211 50.9147 120.396 51.175 120.639 51.3689C120.884 51.5604 121.189 51.6561 121.552 51.6561ZM127.403 52.4515C127.045 52.4515 126.72 52.384 126.427 52.249C126.135 52.1115 125.903 51.9139 125.731 51.6561C125.56 51.3959 125.474 51.0817 125.474 50.7134C125.474 50.3894 125.538 50.1267 125.665 49.9254C125.793 49.7216 125.963 49.562 126.177 49.4467C126.391 49.3313 126.626 49.2454 126.884 49.1889C127.144 49.13 127.406 49.0833 127.668 49.049C128.012 49.0048 128.291 48.9716 128.504 48.9495C128.72 48.925 128.877 48.8845 128.976 48.828C129.076 48.7716 129.127 48.6734 129.127 48.5334V48.504C129.127 48.1406 129.027 47.8583 128.828 47.657C128.632 47.4557 128.334 47.355 127.934 47.355C127.519 47.355 127.193 47.4459 126.958 47.6275C126.722 47.8092 126.556 48.0031 126.461 48.2094L125.636 47.9148C125.783 47.5711 125.979 47.3035 126.225 47.112C126.473 46.9181 126.743 46.783 127.035 46.7069C127.33 46.6284 127.619 46.5891 127.904 46.5891C128.086 46.5891 128.294 46.6112 128.53 46.6554C128.768 46.6971 128.998 46.7843 129.219 46.9168C129.442 47.0494 129.627 47.2495 129.775 47.5171C129.922 47.7847 129.996 48.1431 129.996 48.5923V52.319H129.127V51.553H129.082C129.024 51.6758 128.925 51.8071 128.788 51.947C128.65 52.087 128.468 52.206 128.239 52.3042C128.011 52.4024 127.732 52.4515 127.403 52.4515ZM127.536 51.6709C127.88 51.6709 128.169 51.6033 128.405 51.4683C128.643 51.3333 128.822 51.159 128.943 50.9454C129.065 50.7318 129.127 50.5072 129.127 50.2715V49.4761C129.09 49.5203 129.009 49.5608 128.884 49.5976C128.761 49.632 128.618 49.6627 128.456 49.6897C128.297 49.7143 128.141 49.7364 127.989 49.756C127.839 49.7732 127.718 49.7879 127.624 49.8002C127.398 49.8296 127.187 49.8775 126.991 49.9438C126.797 50.0076 126.64 50.1046 126.519 50.2347C126.402 50.3624 126.343 50.5367 126.343 50.7576C126.343 51.0596 126.454 51.2879 126.678 51.4425C126.904 51.5948 127.19 51.6709 127.536 51.6709ZM131.939 54.4401C131.792 54.4401 131.661 54.4278 131.545 54.4032C131.43 54.3811 131.35 54.359 131.306 54.3369L131.527 53.571C131.738 53.625 131.924 53.6446 132.086 53.6299C132.248 53.6152 132.392 53.5428 132.517 53.4127C132.645 53.285 132.762 53.0776 132.867 52.7903L133.029 52.3484L130.938 46.6627H131.88L133.442 51.17H133.5L135.062 46.6627H136.005L133.604 53.1438C133.496 53.436 133.362 53.6778 133.202 53.8693C133.043 54.0632 132.857 54.2068 132.646 54.3001C132.437 54.3934 132.202 54.4401 131.939 54.4401ZM138.282 44.7773V45.4402C138.282 45.6415 138.245 45.8563 138.172 46.0846C138.1 46.3105 137.995 46.5302 137.855 46.7438C137.717 46.9549 137.551 47.139 137.354 47.2961L136.883 46.9131C137.037 46.6922 137.171 46.4627 137.284 46.2245C137.4 45.9839 137.457 45.7274 137.457 45.4549V44.7773H138.282ZM142.637 47.9295L141.856 48.1504C141.807 48.0203 141.734 47.8939 141.639 47.7712C141.545 47.646 141.418 47.5428 141.256 47.4618C141.094 47.3808 140.886 47.3403 140.633 47.3403C140.287 47.3403 139.999 47.4201 139.768 47.5797C139.54 47.7368 139.426 47.9369 139.426 48.1799C139.426 48.3959 139.504 48.5666 139.661 48.6918C139.818 48.817 140.064 48.9213 140.398 49.0048L141.237 49.211C141.743 49.3337 142.12 49.5215 142.368 49.7744C142.616 50.0248 142.74 50.3476 142.74 50.7429C142.74 51.0669 142.646 51.3566 142.46 51.6119C142.276 51.8673 142.018 52.0686 141.687 52.2159C141.355 52.3632 140.97 52.4368 140.53 52.4368C139.953 52.4368 139.476 52.3116 139.098 52.0612C138.72 51.8108 138.48 51.445 138.38 50.9638L139.205 50.7576C139.283 51.062 139.432 51.2903 139.65 51.4425C139.871 51.5948 140.16 51.6709 140.516 51.6709C140.921 51.6709 141.242 51.5849 141.48 51.4131C141.721 51.2388 141.841 51.0301 141.841 50.7871C141.841 50.5907 141.772 50.4262 141.635 50.2936C141.498 50.1586 141.286 50.058 141.002 49.9917L140.059 49.7707C139.541 49.648 139.16 49.4577 138.917 49.1999C138.677 48.9397 138.556 48.6144 138.556 48.2241C138.556 47.9049 138.646 47.6226 138.825 47.3771C139.007 47.1316 139.254 46.9389 139.565 46.799C139.88 46.6591 140.236 46.5891 140.633 46.5891C141.193 46.5891 141.633 46.7118 141.952 46.9573C142.273 47.2028 142.502 47.5269 142.637 47.9295ZM149.424 46.6627V47.3992H146.493V46.6627H149.424ZM147.347 45.3076H148.216V50.6987C148.216 50.9442 148.252 51.1283 148.323 51.2511C148.397 51.3714 148.49 51.4524 148.603 51.4941C148.718 51.5334 148.84 51.553 148.968 51.553C149.063 51.553 149.142 51.5481 149.203 51.5383C149.265 51.526 149.314 51.5162 149.351 51.5088L149.527 52.2895C149.468 52.3116 149.386 52.3337 149.281 52.3558C149.175 52.3803 149.041 52.3926 148.879 52.3926C148.634 52.3926 148.393 52.3398 148.158 52.2343C147.924 52.1287 147.73 51.9679 147.576 51.7519C147.423 51.5358 147.347 51.2633 147.347 50.9344V45.3076ZM153.042 52.4368C152.497 52.4368 152.027 52.3165 151.632 52.0759C151.239 51.8329 150.936 51.4941 150.722 51.0596C150.511 50.6226 150.406 50.1144 150.406 49.535C150.406 48.9557 150.511 48.445 150.722 48.0031C150.936 47.5588 151.233 47.2127 151.614 46.9647C151.996 46.7143 152.443 46.5891 152.954 46.5891C153.249 46.5891 153.539 46.6382 153.827 46.7364C154.114 46.8346 154.375 46.9942 154.611 47.2151C154.847 47.4336 155.034 47.7233 155.174 48.0842C155.314 48.445 155.384 48.8894 155.384 49.4172V49.7854H151.024V49.0342H154.501C154.501 48.7151 154.437 48.4303 154.309 48.1799C154.184 47.9295 154.005 47.7319 153.771 47.587C153.541 47.4422 153.268 47.3698 152.954 47.3698C152.608 47.3698 152.308 47.4557 152.055 47.6275C151.805 47.7969 151.612 48.0179 151.477 48.2904C151.342 48.5629 151.275 48.855 151.275 49.1668V49.6676C151.275 50.0948 151.348 50.4569 151.496 50.7539C151.645 51.0485 151.853 51.2732 152.118 51.4278C152.383 51.58 152.691 51.6561 153.042 51.6561C153.271 51.6561 153.477 51.6242 153.661 51.5604C153.848 51.4941 154.008 51.3959 154.143 51.2658C154.278 51.1332 154.383 50.9687 154.456 50.7723L155.296 51.008C155.208 51.2928 155.059 51.5432 154.85 51.7592C154.642 51.9728 154.384 52.1398 154.077 52.2601C153.77 52.3779 153.425 52.4368 153.042 52.4368ZM159.004 52.4368C158.474 52.4368 158.017 52.3116 157.634 52.0612C157.251 51.8108 156.957 51.4659 156.751 51.0264C156.544 50.587 156.441 50.085 156.441 49.5203C156.441 48.9459 156.547 48.4389 156.758 47.9995C156.971 47.5576 157.269 47.2127 157.649 46.9647C158.032 46.7143 158.479 46.5891 158.989 46.5891C159.387 46.5891 159.746 46.6627 160.065 46.81C160.384 46.9573 160.645 47.1636 160.849 47.4287C161.053 47.6938 161.179 48.0031 161.228 48.3567H160.359C160.293 48.0989 160.146 47.8706 159.917 47.6717C159.692 47.4704 159.387 47.3698 159.004 47.3698C158.665 47.3698 158.368 47.4581 158.113 47.6349C157.86 47.8092 157.663 48.0559 157.52 48.3751C157.38 48.6918 157.31 49.0637 157.31 49.4909C157.31 49.9278 157.379 50.3084 157.516 50.6324C157.656 50.9565 157.853 51.2081 158.106 51.3873C158.361 51.5665 158.66 51.6561 159.004 51.6561C159.23 51.6561 159.435 51.6169 159.619 51.5383C159.803 51.4597 159.959 51.3468 160.087 51.1995C160.214 51.0522 160.305 50.8755 160.359 50.6692H161.228C161.179 51.0031 161.058 51.3038 160.864 51.5714C160.672 51.8366 160.418 52.0477 160.102 52.2048C159.787 52.3595 159.422 52.4368 159.004 52.4368ZM163.368 48.9164V52.319H162.499V44.7773H163.368V47.5465H163.442C163.574 47.2544 163.773 47.0224 164.038 46.8505C164.306 46.6762 164.662 46.5891 165.106 46.5891C165.491 46.5891 165.829 46.6664 166.119 46.8211C166.408 46.9733 166.633 47.2077 166.793 47.5244C166.955 47.8387 167.036 48.2388 167.036 48.7249V52.319H166.167V48.7838C166.167 48.3346 166.05 47.9872 165.817 47.7417C165.586 47.4937 165.266 47.3698 164.856 47.3698C164.571 47.3698 164.315 47.4299 164.09 47.5502C163.866 47.6705 163.689 47.846 163.559 48.0768C163.432 48.3076 163.368 48.5874 163.368 48.9164ZM169.495 48.9164V52.319H168.625V46.6627H169.465V47.5465H169.539C169.671 47.2593 169.873 47.0285 170.143 46.8542C170.413 46.6775 170.761 46.5891 171.188 46.5891C171.571 46.5891 171.907 46.6676 172.194 46.8248C172.481 46.9794 172.704 47.2151 172.864 47.5318C173.024 47.846 173.103 48.2437 173.103 48.7249V52.319H172.234V48.7838C172.234 48.3395 172.119 47.9933 171.888 47.7454C171.657 47.495 171.341 47.3698 170.938 47.3698C170.661 47.3698 170.413 47.4299 170.194 47.5502C169.978 47.6705 169.808 47.846 169.682 48.0768C169.557 48.3076 169.495 48.5874 169.495 48.9164ZM176.989 52.4368C176.479 52.4368 176.031 52.3153 175.645 52.0722C175.262 51.8292 174.963 51.4892 174.747 51.0522C174.533 50.6152 174.426 50.1046 174.426 49.5203C174.426 48.9311 174.533 48.4168 174.747 47.9774C174.963 47.5379 175.262 47.1967 175.645 46.9537C176.031 46.7106 176.479 46.5891 176.989 46.5891C177.5 46.5891 177.947 46.7106 178.33 46.9537C178.715 47.1967 179.015 47.5379 179.228 47.9774C179.444 48.4168 179.552 48.9311 179.552 49.5203C179.552 50.1046 179.444 50.6152 179.228 51.0522C179.015 51.4892 178.715 51.8292 178.33 52.0722C177.947 52.3153 177.5 52.4368 176.989 52.4368ZM176.989 51.6561C177.377 51.6561 177.696 51.5567 177.947 51.3579C178.197 51.159 178.382 50.8975 178.503 50.5735C178.623 50.2494 178.683 49.8984 178.683 49.5203C178.683 49.1422 178.623 48.79 178.503 48.4635C178.382 48.1369 178.197 47.873 177.947 47.6717C177.696 47.4704 177.377 47.3698 176.989 47.3698C176.601 47.3698 176.282 47.4704 176.032 47.6717C175.781 47.873 175.596 48.1369 175.476 48.4635C175.355 48.79 175.295 49.1422 175.295 49.5203C175.295 49.8984 175.355 50.2494 175.476 50.5735C175.596 50.8975 175.781 51.159 176.032 51.3579C176.282 51.5567 176.601 51.6561 176.989 51.6561ZM181.748 44.7773V52.319H180.879V44.7773H181.748ZM185.637 52.4368C185.127 52.4368 184.679 52.3153 184.293 52.0722C183.91 51.8292 183.611 51.4892 183.395 51.0522C183.181 50.6152 183.074 50.1046 183.074 49.5203C183.074 48.9311 183.181 48.4168 183.395 47.9774C183.611 47.5379 183.91 47.1967 184.293 46.9537C184.679 46.7106 185.127 46.5891 185.637 46.5891C186.148 46.5891 186.595 46.7106 186.978 46.9537C187.363 47.1967 187.663 47.5379 187.876 47.9774C188.092 48.4168 188.2 48.9311 188.2 49.5203C188.2 50.1046 188.092 50.6152 187.876 51.0522C187.663 51.4892 187.363 51.8292 186.978 52.0722C186.595 52.3153 186.148 52.4368 185.637 52.4368ZM185.637 51.6561C186.025 51.6561 186.344 51.5567 186.595 51.3579C186.845 51.159 187.031 50.8975 187.151 50.5735C187.271 50.2494 187.331 49.8984 187.331 49.5203C187.331 49.1422 187.271 48.79 187.151 48.4635C187.031 48.1369 186.845 47.873 186.595 47.6717C186.344 47.4704 186.025 47.3698 185.637 47.3698C185.25 47.3698 184.93 47.4704 184.68 47.6717C184.43 47.873 184.244 48.1369 184.124 48.4635C184.004 48.79 183.944 49.1422 183.944 49.5203C183.944 49.8984 184.004 50.2494 184.124 50.5735C184.244 50.8975 184.43 51.159 184.68 51.3579C184.93 51.5567 185.25 51.6561 185.637 51.6561ZM191.81 54.5579C191.39 54.5579 191.029 54.5039 190.727 54.3959C190.426 54.2903 190.174 54.1504 189.973 53.9761C189.774 53.8042 189.615 53.6201 189.498 53.4237L190.19 52.9376C190.268 53.0407 190.368 53.1586 190.488 53.2911C190.608 53.4262 190.773 53.5428 190.982 53.641C191.193 53.7416 191.469 53.7919 191.81 53.7919C192.267 53.7919 192.644 53.6815 192.941 53.4605C193.238 53.2396 193.386 52.8934 193.386 52.4221V51.2732H193.313C193.249 51.3763 193.158 51.5039 193.04 51.6561C192.925 51.8059 192.758 51.9397 192.539 52.0575C192.323 52.1729 192.031 52.2306 191.663 52.2306C191.206 52.2306 190.796 52.1226 190.433 51.9065C190.072 51.6905 189.786 51.3763 189.575 50.9638C189.366 50.5514 189.262 50.0506 189.262 49.4614C189.262 48.882 189.364 48.3775 189.568 47.9479C189.771 47.5158 190.055 47.182 190.418 46.9463C190.781 46.7082 191.201 46.5891 191.678 46.5891C192.046 46.5891 192.338 46.6505 192.554 46.7732C192.772 46.8935 192.939 47.031 193.055 47.1856C193.173 47.3379 193.263 47.4631 193.327 47.5613H193.416V46.6627H194.255V52.481C194.255 52.9671 194.145 53.3623 193.924 53.6667C193.705 53.9736 193.411 54.1982 193.04 54.3406C192.672 54.4855 192.262 54.5579 191.81 54.5579ZM191.781 51.4499C192.129 51.4499 192.424 51.3701 192.664 51.2106C192.905 51.051 193.088 50.8214 193.213 50.5219C193.338 50.2224 193.401 49.864 193.401 49.4467C193.401 49.0391 193.34 48.6795 193.217 48.3677C193.094 48.0559 192.912 47.8117 192.672 47.6349C192.431 47.4581 192.134 47.3698 191.781 47.3698C191.412 47.3698 191.106 47.4631 190.86 47.6496C190.617 47.8362 190.434 48.0866 190.311 48.4009C190.191 48.7151 190.131 49.0637 190.131 49.4467C190.131 49.8395 190.192 50.1868 190.315 50.4888C190.44 50.7883 190.624 51.024 190.867 51.1958C191.113 51.3652 191.417 51.4499 191.781 51.4499ZM195.846 52.319V46.6627H196.715V52.319H195.846ZM196.288 45.72C196.119 45.72 195.973 45.6623 195.85 45.547C195.729 45.4316 195.669 45.2929 195.669 45.1308C195.669 44.9688 195.729 44.8301 195.85 44.7147C195.973 44.5993 196.119 44.5417 196.288 44.5417C196.457 44.5417 196.602 44.5993 196.723 44.7147C196.845 44.8301 196.907 44.9688 196.907 45.1308C196.907 45.2929 196.845 45.4316 196.723 45.547C196.602 45.6623 196.457 45.72 196.288 45.72ZM200.678 52.4368C200.133 52.4368 199.663 52.3165 199.268 52.0759C198.875 51.8329 198.572 51.4941 198.358 51.0596C198.147 50.6226 198.042 50.1144 198.042 49.535C198.042 48.9557 198.147 48.445 198.358 48.0031C198.572 47.5588 198.869 47.2127 199.25 46.9647C199.633 46.7143 200.079 46.5891 200.59 46.5891C200.885 46.5891 201.175 46.6382 201.463 46.7364C201.75 46.8346 202.011 46.9942 202.247 47.2151C202.483 47.4336 202.671 47.7233 202.81 48.0842C202.95 48.445 203.02 48.8894 203.02 49.4172V49.7854H198.66V49.0342H202.137C202.137 48.7151 202.073 48.4303 201.945 48.1799C201.82 47.9295 201.641 47.7319 201.407 47.587C201.177 47.4422 200.904 47.3698 200.59 47.3698C200.244 47.3698 199.944 47.4557 199.691 47.6275C199.441 47.7969 199.248 48.0179 199.113 48.2904C198.978 48.5629 198.911 48.855 198.911 49.1668V49.6676C198.911 50.0948 198.984 50.4569 199.132 50.7539C199.281 51.0485 199.489 51.2732 199.754 51.4278C200.019 51.58 200.327 51.6561 200.678 51.6561C200.907 51.6561 201.113 51.6242 201.297 51.5604C201.484 51.4941 201.644 51.3959 201.779 51.2658C201.914 51.1332 202.019 50.9687 202.092 50.7723L202.932 51.008C202.844 51.2928 202.695 51.5432 202.486 51.7592C202.278 51.9728 202.02 52.1398 201.713 52.2601C201.406 52.3779 201.061 52.4368 200.678 52.4368ZM208.349 47.9295L207.568 48.1504C207.519 48.0203 207.447 47.8939 207.351 47.7712C207.258 47.646 207.13 47.5428 206.968 47.4618C206.806 47.3808 206.598 47.3403 206.346 47.3403C205.999 47.3403 205.711 47.4201 205.48 47.5797C205.252 47.7368 205.138 47.9369 205.138 48.1799C205.138 48.3959 205.216 48.5666 205.373 48.6918C205.531 48.817 205.776 48.9213 206.11 49.0048L206.95 49.211C207.455 49.3337 207.832 49.5215 208.08 49.7744C208.328 50.0248 208.452 50.3476 208.452 50.7429C208.452 51.0669 208.359 51.3566 208.172 51.6119C207.988 51.8673 207.73 52.0686 207.399 52.2159C207.067 52.3632 206.682 52.4368 206.243 52.4368C205.666 52.4368 205.188 52.3116 204.81 52.0612C204.432 51.8108 204.193 51.445 204.092 50.9638L204.917 50.7576C204.995 51.062 205.144 51.2903 205.362 51.4425C205.583 51.5948 205.872 51.6709 206.228 51.6709C206.633 51.6709 206.954 51.5849 207.193 51.4131C207.433 51.2388 207.553 51.0301 207.553 50.7871C207.553 50.5907 207.485 50.4262 207.347 50.2936C207.21 50.1586 206.999 50.058 206.714 49.9917L205.771 49.7707C205.253 49.648 204.873 49.4577 204.63 49.1999C204.389 48.9397 204.269 48.6144 204.269 48.2241C204.269 47.9049 204.358 47.6226 204.538 47.3771C204.719 47.1316 204.966 46.9389 205.278 46.799C205.592 46.6591 205.948 46.5891 206.346 46.5891C206.905 46.5891 207.345 46.7118 207.664 46.9573C207.986 47.2028 208.214 47.5269 208.349 47.9295Z" fill="#FEFEFE"/>
<rect y="5.61731" width="210.42" height="4.32073" rx="2.16037" fill="#FEFEFE"/>
<rect y="34.1339" width="210.42" height="4.32073" rx="2.16037" fill="#FEFEFE"/>
</svg>
